<svg width="23" height="23" viewBox="0 0 23 23" fill="none" xmlns="http://www.w3.org/2000/svg">
<path fill-rule="evenodd" clip-rule="evenodd" d="M1.37991 1.09L0.919907 1.09005C0.505693 1.0901 0.169948 1.42593 0.169998 1.84014C0.170049 2.25436 0.505876 2.5901 0.92009 2.59005L1.37998 2.59H1.38006H1.38009C2.37713 2.59007 3.24219 3.27828 3.46638 4.2498L3.58613 4.7687L4.85059 10.248L4.85685 10.2752C5.00481 10.9164 5.12494 11.4369 5.25487 11.8573C5.38942 12.2926 5.54823 12.6689 5.79643 13.0093C5.80636 13.023 5.81639 13.0365 5.82649 13.05H5.52C4.08958 13.05 2.93 14.2096 2.93 15.64C2.93 17.0704 4.08958 18.23 5.52 18.23H5.92985C5.77592 18.5613 5.69 18.9306 5.69 19.32C5.69 20.7504 6.84958 21.91 8.28 21.91C9.71042 21.91 10.87 20.7504 10.87 19.32C10.87 18.9306 10.7841 18.5613 10.6302 18.23H13.2898C13.1359 18.5613 13.05 18.9306 13.05 19.32C13.05 20.7504 14.2096 21.91 15.64 21.91C17.0704 21.91 18.23 20.7504 18.23 19.32C18.23 18.9306 18.1441 18.5613 17.9902 18.23H19.32C19.7342 18.23 20.07 17.8942 20.07 17.48C20.07 17.0658 19.7342 16.73 19.32 16.73H15.64H8.28H5.52C4.91801 16.73 4.43 16.242 4.43 15.64C4.43 15.038 4.91801 14.55 5.52 14.55H9.99473L10.2306 14.5501H10.2585H14.8287L14.9833 14.5501C16.1142 14.5506 16.8941 14.551 17.5721 14.2772C18.1685 14.0364 18.6929 13.6462 19.095 13.1442C19.552 12.5735 19.7758 11.8263 20.1002 10.7429L20.1446 10.5948L20.6425 8.93508L20.6526 8.90149L20.6526 8.90144C20.8535 8.23196 21.0186 7.6816 21.1111 7.23037C21.2061 6.76713 21.2459 6.31778 21.1243 5.87391C20.9419 5.2076 20.5154 4.63435 19.9296 4.26817C19.5394 4.02423 19.0976 3.93314 18.6266 3.89104C18.1678 3.85003 17.5932 3.85004 16.8943 3.85005L16.8591 3.85005H4.91298C4.50946 2.23096 3.05413 1.09004 1.38002 1.09L1.38 1.84L1.37991 1.09Z" fill="#138800"/>
<path d="M14.1656 1.10419H20.7896V8.83219H14.1656V1.10419Z" fill="white"/>
<g clip-path="url(#clip0_2015_36519)">
<path fill-rule="evenodd" clip-rule="evenodd" d="M13.8991 0.847496C14.4339 0.575012 15.1339 0.575012 16.5341 0.575012L18.4241 0.575012C19.8242 0.575012 20.5243 0.575013 21.059 0.847496C21.5294 1.08718 21.9119 1.46963 22.1516 1.94004C22.4241 2.47482 22.4241 3.17488 22.4241 4.57501V6.46501C22.4241 7.86514 22.4241 8.56521 22.1516 9.09999C21.9119 9.57039 21.5294 9.95284 21.059 10.1925C20.5243 10.465 19.8242 10.465 18.4241 10.465H16.5341C15.1339 10.465 14.4339 10.465 13.8991 10.1925C13.4287 9.95284 13.0462 9.57039 12.8065 9.09999C12.5341 8.56521 12.5341 7.86514 12.5341 6.46501L12.5341 4.57501C12.5341 3.17488 12.5341 2.47481 12.8065 1.94004C13.0462 1.46963 13.4287 1.08718 13.8991 0.847496Z" fill="#138800"/>
<path d="M16.5341 0.575012L16.5341 0.0750122L16.5341 0.575012ZM13.8991 0.847496L14.1261 1.293L14.1261 1.293L13.8991 0.847496ZM18.4241 0.575012L18.4241 1.07501L18.4241 0.575012ZM21.059 0.847496L21.286 0.401993L21.286 0.401993L21.059 0.847496ZM22.1516 1.94004L21.7061 2.16703L21.7061 2.16703L22.1516 1.94004ZM22.1516 9.09999L21.7061 8.87299L21.7061 8.87299L22.1516 9.09999ZM21.059 10.1925L20.832 9.74702L21.059 10.1925ZM13.8991 10.1925L14.1261 9.74702L14.1261 9.74702L13.8991 10.1925ZM12.8065 9.09999L13.252 8.87299L13.252 8.87299L12.8065 9.09999ZM12.5341 6.46501L13.0341 6.46501L12.5341 6.46501ZM12.5341 4.57501L13.0341 4.57501L12.5341 4.57501ZM12.8065 1.94004L13.252 2.16703L13.252 2.16703L12.8065 1.94004ZM16.2226 5.39646C16.0274 5.2012 15.7108 5.2012 15.5155 5.39646C15.3202 5.59172 15.3202 5.9083 15.5155 6.10357L16.2226 5.39646ZM17.0191 6.90001L16.6655 7.25357C16.7593 7.34733 16.8865 7.40001 17.0191 7.40001C17.1517 7.40001 17.2788 7.34733 17.3726 7.25357L17.0191 6.90001ZM20.1326 4.49357C20.3279 4.2983 20.3279 3.98172 20.1326 3.78646C19.9374 3.5912 19.6208 3.5912 19.4255 3.78646L20.1326 4.49357ZM16.5341 0.0750122C15.8422 0.0750122 15.2933 0.0746233 14.8513 0.110733C14.4035 0.14732 14.0217 0.22385 13.6721 0.401992L14.1261 1.293C14.3112 1.19866 14.5468 1.13895 14.9328 1.10741C15.3246 1.0754 15.8257 1.07501 16.5341 1.07501L16.5341 0.0750122ZM18.4241 0.0750124L16.5341 0.0750122L16.5341 1.07501L18.4241 1.07501L18.4241 0.0750124ZM21.286 0.401993C20.9364 0.223851 20.5546 0.14732 20.1068 0.110733C19.6648 0.0746236 19.1159 0.0750124 18.4241 0.0750124L18.4241 1.07501C19.1324 1.07501 19.6335 1.0754 20.0253 1.10741C20.4113 1.13895 20.6469 1.19866 20.832 1.293L21.286 0.401993ZM22.5971 1.71304C22.3095 1.14855 21.8505 0.689613 21.286 0.401993L20.832 1.293C21.2084 1.48475 21.5143 1.79071 21.7061 2.16703L22.5971 1.71304ZM22.9241 4.57501C22.9241 3.8832 22.9244 3.33427 22.8883 2.8923C22.8517 2.4445 22.7752 2.06266 22.5971 1.71304L21.7061 2.16703C21.8004 2.35219 21.8601 2.58777 21.8917 2.97373C21.9237 3.36553 21.9241 3.8667 21.9241 4.57501H22.9241ZM22.9241 6.46501V4.57501H21.9241V6.46501H22.9241ZM22.5971 9.32698C22.7752 8.97736 22.8517 8.59552 22.8883 8.14772C22.9244 7.70576 22.9241 7.15683 22.9241 6.46501H21.9241C21.9241 7.17333 21.9237 7.67449 21.8917 8.06629C21.8601 8.45225 21.8004 8.68784 21.7061 8.87299L22.5971 9.32698ZM21.286 10.638C21.8505 10.3504 22.3095 9.89147 22.5971 9.32698L21.7061 8.87299C21.5143 9.24932 21.2084 9.55528 20.832 9.74702L21.286 10.638ZM18.4241 10.965C19.1159 10.965 19.6648 10.9654 20.1068 10.9293C20.5546 10.8927 20.9364 10.8162 21.286 10.638L20.832 9.74702C20.6469 9.84137 20.4113 9.90108 20.0253 9.93261C19.6335 9.96462 19.1324 9.96501 18.4241 9.96501V10.965ZM16.5341 10.965H18.4241V9.96501H16.5341V10.965ZM13.6721 10.638C14.0217 10.8162 14.4035 10.8927 14.8513 10.9293C15.2933 10.9654 15.8422 10.965 16.5341 10.965V9.96501C15.8257 9.96501 15.3246 9.96462 14.9328 9.93261C14.5468 9.90108 14.3112 9.84137 14.1261 9.74702L13.6721 10.638ZM12.361 9.32698C12.6487 9.89147 13.1076 10.3504 13.6721 10.638L14.1261 9.74702C13.7498 9.55528 13.4438 9.24932 13.252 8.87299L12.361 9.32698ZM12.0341 6.46501C12.0341 7.15683 12.0337 7.70576 12.0698 8.14772C12.1064 8.59552 12.1829 8.97736 12.361 9.32698L13.252 8.87299C13.1577 8.68784 13.098 8.45225 13.0665 8.06629C13.0344 7.67449 13.0341 7.17333 13.0341 6.46501L12.0341 6.46501ZM12.0341 4.57501L12.0341 6.46501L13.0341 6.46501L13.0341 4.57501L12.0341 4.57501ZM12.361 1.71304C12.1829 2.06266 12.1064 2.4445 12.0698 2.8923C12.0337 3.33426 12.0341 3.88319 12.0341 4.57501L13.0341 4.57501C13.0341 3.86669 13.0344 3.36553 13.0665 2.97373C13.098 2.58777 13.1577 2.35219 13.252 2.16703L12.361 1.71304ZM13.6721 0.401992C13.1076 0.689613 12.6487 1.14855 12.361 1.71304L13.252 2.16703C13.4438 1.79071 13.7498 1.48475 14.1261 1.293L13.6721 0.401992ZM15.5155 6.10357L16.6655 7.25357L17.3726 6.54646L16.2226 5.39646L15.5155 6.10357ZM17.3726 7.25357L20.1326 4.49357L19.4255 3.78646L16.6655 6.54646L17.3726 7.25357Z" fill="white"/>
</g>
<defs>
<clipPath id="clip0_2015_36519">
<rect width="11.04" height="11.04" fill="white" transform="translate(11.9591)"/>
</clipPath>
</defs>
</svg>
