<svg width="76" height="75" viewBox="0 0 76 75" fill="none" xmlns="http://www.w3.org/2000/svg">
<path fill-rule="evenodd" clip-rule="evenodd" d="M12.9376 5.60927C16.28 3.90625 20.6554 3.90625 29.4062 3.90625H46.5938C55.3446 3.90625 59.72 3.90625 63.0624 5.60927C66.0024 7.10729 68.3927 9.49762 69.8907 12.4376C71.5938 15.78 71.5938 20.1554 71.5938 28.9062V62.7681C71.5938 67.1038 71.5938 69.2716 70.6846 70.5098C69.8918 71.5895 68.675 72.2784 67.3413 72.4028C65.8118 72.5453 63.9529 71.43 60.2351 69.1993L60.235 69.1993L58.9136 68.4064L58.9136 68.4064C56.7035 67.0803 55.5984 66.4173 54.4188 65.9485C53.3715 65.5323 52.2823 65.2306 51.1701 65.0486C49.9173 64.8437 48.6286 64.8437 46.0512 64.8437H29.4062C20.6554 64.8437 16.28 64.8437 12.9376 63.1407C9.99762 61.6427 7.60729 59.2524 6.10927 56.3123C4.40625 52.97 4.40625 48.5946 4.40625 39.8437V28.9062C4.40625 20.1554 4.40625 15.78 6.10927 12.4376C7.60729 9.49762 9.99762 7.10729 12.9376 5.60927ZM50.5948 28.2198C51.5101 27.3045 51.5101 25.8205 50.5948 24.9052C49.6795 23.9899 48.1955 23.9899 47.2802 24.9052L34.875 37.3104L30.2823 32.7177C29.367 31.8024 27.883 31.8024 26.9677 32.7177C26.0524 33.633 26.0524 35.117 26.9677 36.0323L33.2177 42.2823C34.133 43.1976 35.617 43.1976 36.5323 42.2823L50.5948 28.2198Z" fill="#01A045"/>
</svg>
