<svg width="28" height="32" viewBox="0 0 28 32" fill="none" xmlns="http://www.w3.org/2000/svg">
<path d="M23.4633 15.8139C23.4633 18.7506 23.3938 20.1059 22.5598 21.079C22.0558 21.6872 21.3086 22.139 20.1618 22.139C19.0149 22.139 18.2677 21.6872 17.7638 21.079C16.9471 20.0886 16.8602 18.7506 16.8602 15.8139C16.8602 12.8772 16.9471 11.5392 17.7638 10.5488C18.2677 9.94057 19.0149 9.48878 20.1618 9.48878C21.3086 9.48878 22.0558 9.94057 22.5598 10.5488C23.3938 11.5219 23.4633 12.8772 23.4633 15.8139ZM21.5172 15.8139C21.5172 13.5549 21.465 12.3038 21.1001 11.713C20.9263 11.435 20.6309 11.2438 20.1618 11.2438C19.6926 11.2438 19.4146 11.435 19.2408 11.713C18.8759 12.3038 18.8064 13.5549 18.8064 15.8139C18.8064 18.0729 18.8759 19.324 19.2408 19.9148C19.4146 20.1928 19.6926 20.384 20.1618 20.384C20.6309 20.384 20.9263 20.1928 21.1001 19.9148C21.465 19.324 21.5172 18.0729 21.5172 15.8139Z" fill="white"/>
<path d="M15.4808 18.5768C15.4808 19.8453 15.307 20.6967 14.6815 21.3049C14.1775 21.7915 13.3608 22.1216 12.2661 22.1216C11.1887 22.1216 10.3894 21.8262 9.86811 21.3049C9.27731 20.7141 9.06879 19.9496 9.06879 18.6463H11.015C11.015 19.3066 11.0845 19.7237 11.3625 20.0364C11.5363 20.2276 11.8317 20.3666 12.2661 20.3666C12.7179 20.3666 13.0133 20.245 13.2044 20.0191C13.4651 19.7237 13.5346 19.3066 13.5346 18.6463C13.5346 17.3257 13.3261 16.9955 12.3704 16.6132L10.8933 16.005C9.64222 15.4837 9.17305 14.806 9.17305 12.8946C9.17305 11.7825 9.5032 10.8789 10.1809 10.2707C10.7196 9.80156 11.4146 9.52353 12.3009 9.52353C13.2913 9.52353 14.0211 9.78418 14.5251 10.2707C15.168 10.8963 15.3939 11.7825 15.3939 12.9641H13.4477C13.4477 12.4081 13.413 11.9736 13.1523 11.6435C12.9785 11.4176 12.7005 11.2786 12.2835 11.2786C11.8838 11.2786 11.6405 11.4176 11.4494 11.6261C11.2235 11.8868 11.1192 12.3038 11.1192 12.8425C11.1192 13.8503 11.2756 14.1631 12.1445 14.5106L13.6041 15.1015C15.0811 15.7096 15.4808 16.4916 15.4808 18.5768Z" fill="white"/>
<path d="M7.41067 22H5.46448V9.62779H7.41067V22Z" fill="white"/>
<g clip-path="url(#clip0_2015_18913)">
<path fill-rule="evenodd" clip-rule="evenodd" d="M14 4.77761C21.1797 4.77761 27 10.5979 27 17.7776C27 24.9573 21.1797 30.7776 14 30.7776C6.8203 30.7776 1 24.9573 1 17.7776C1 10.5979 6.8203 4.77761 14 4.77761ZM14 3.77761C21.732 3.77761 28 10.0456 28 17.7776C28 25.5096 21.732 31.7776 14 31.7776C6.26801 31.7776 0 25.5096 0 17.7776C0 10.0456 6.26801 3.77761 14 3.77761Z" fill="white"/>
<path fill-rule="evenodd" clip-rule="evenodd" d="M17.0787 8.25331C18.045 10.6406 18.6654 14.0075 18.6654 17.7776C18.6654 21.5477 18.045 24.9146 17.0787 27.3019C16.5945 28.4982 16.0431 29.3997 15.4819 29.986C14.9233 30.5698 14.422 30.7776 13.9987 30.7776C13.5754 30.7776 13.0741 30.5698 12.5155 29.986C11.9543 29.3997 11.4029 28.4982 10.9187 27.3019C9.9524 24.9146 9.33203 21.5477 9.33203 17.7776C9.33203 14.0075 9.9524 10.6406 10.9187 8.25331C11.4029 7.05704 11.9543 6.15556 12.5155 5.56919C13.0741 4.98539 13.5754 4.77761 13.9987 4.77761C14.422 4.77761 14.9233 4.98539 15.4819 5.56919C16.0431 6.15556 16.5945 7.05704 17.0787 8.25331ZM13.9987 3.77761C17.1283 3.77761 19.6654 10.0456 19.6654 17.7776C19.6654 25.5096 17.1283 31.7776 13.9987 31.7776C10.8691 31.7776 8.33203 25.5096 8.33203 17.7776C8.33203 10.0456 10.8691 3.77761 13.9987 3.77761Z" fill="white"/>
</g>
<g clip-path="url(#clip1_2015_18913)">
<path fill-rule="evenodd" clip-rule="evenodd" d="M14 27.1113C21.1797 27.1113 27 21.291 27 14.1113C27 6.93163 21.1797 1.11133 14 1.11133C6.8203 1.11133 1 6.93163 1 14.1113C1 21.291 6.8203 27.1113 14 27.1113ZM14 28.1113C21.732 28.1113 28 21.8433 28 14.1113C28 6.37934 21.732 0.111328 14 0.111328C6.26801 0.111328 0 6.37934 0 14.1113C0 21.8433 6.26801 28.1113 14 28.1113Z" fill="white"/>
<path fill-rule="evenodd" clip-rule="evenodd" d="M17.0787 23.6356C18.045 21.2483 18.6654 17.8814 18.6654 14.1113C18.6654 10.3412 18.045 6.97436 17.0787 4.58703C16.5945 3.39076 16.0431 2.48927 15.4819 1.90291C14.9233 1.31911 14.422 1.11133 13.9987 1.11133C13.5754 1.11133 13.0741 1.31911 12.5155 1.90291C11.9543 2.48927 11.4029 3.39076 10.9187 4.58703C9.9524 6.97436 9.33203 10.3412 9.33203 14.1113C9.33203 17.8814 9.9524 21.2483 10.9187 23.6356C11.4029 24.8319 11.9543 25.7334 12.5155 26.3197C13.0741 26.9035 13.5754 27.1113 13.9987 27.1113C14.422 27.1113 14.9233 26.9035 15.4819 26.3197C16.0431 25.7334 16.5945 24.8319 17.0787 23.6356ZM13.9987 28.1113C17.1283 28.1113 19.6654 21.8433 19.6654 14.1113C19.6654 6.37934 17.1283 0.111328 13.9987 0.111328C10.8691 0.111328 8.33203 6.37934 8.33203 14.1113C8.33203 21.8433 10.8691 28.1113 13.9987 28.1113Z" fill="white"/>
</g>
<defs>
<clipPath id="clip0_2015_18913">
<rect width="28" height="7.77778" fill="white" transform="matrix(1 0 0 -1 0 31.8888)"/>
</clipPath>
<clipPath id="clip1_2015_18913">
<rect width="28" height="7.77778" fill="white"/>
</clipPath>
</defs>
</svg>
