<svg width="28" height="32" viewBox="0 0 28 32" fill="none" xmlns="http://www.w3.org/2000/svg">
<path d="M7.41067 22H5.46448V9.62779H7.41067V22ZM15.4808 18.5768C15.4808 19.8453 15.307 20.6967 14.6815 21.3049C14.1775 21.7915 13.3608 22.1216 12.2661 22.1216C11.1887 22.1216 10.3894 21.8262 9.86811 21.3049C9.27731 20.7141 9.06878 19.9495 9.06878 18.6463H11.015C11.015 19.3066 11.0845 19.7237 11.3625 20.0364C11.5363 20.2276 11.8317 20.3666 12.2661 20.3666C12.7179 20.3666 13.0133 20.245 13.2044 20.0191C13.4651 19.7237 13.5346 19.3066 13.5346 18.6463C13.5346 17.3257 13.3261 16.9955 12.3704 16.6132L10.8933 16.005C9.64222 15.4837 9.17305 14.806 9.17305 12.8946C9.17305 11.7825 9.5032 10.8789 10.1809 10.2707C10.7196 9.80156 11.4146 9.52353 12.3009 9.52353C13.2913 9.52353 14.0211 9.78418 14.5251 10.2707C15.168 10.8963 15.3939 11.7825 15.3939 12.9641H13.4477C13.4477 12.4081 13.413 11.9736 13.1523 11.6435C12.9785 11.4176 12.7005 11.2786 12.2835 11.2786C11.8838 11.2786 11.6405 11.4176 11.4494 11.6261C11.2235 11.8868 11.1192 12.3038 11.1192 12.8425C11.1192 13.8503 11.2756 14.1631 12.1445 14.5106L13.6041 15.1014C15.0811 15.7096 15.4808 16.4916 15.4808 18.5768ZM23.4633 15.8139C23.4633 18.7506 23.3938 20.1059 22.5598 21.079C22.0558 21.6872 21.3086 22.139 20.1618 22.139C19.0149 22.139 18.2677 21.6872 17.7638 21.079C16.9471 20.0886 16.8602 18.7506 16.8602 15.8139C16.8602 12.8772 16.9471 11.5392 17.7638 10.5488C18.2677 9.94057 19.0149 9.48877 20.1618 9.48877C21.3086 9.48877 22.0558 9.94057 22.5598 10.5488C23.3938 11.5218 23.4633 12.8772 23.4633 15.8139ZM21.5172 15.8139C21.5172 13.5549 21.465 12.3038 21.1001 11.713C20.9263 11.435 20.6309 11.2438 20.1618 11.2438C19.6926 11.2438 19.4146 11.435 19.2408 11.713C18.8759 12.3038 18.8064 13.5549 18.8064 15.8139C18.8064 18.0729 18.8759 19.324 19.2408 19.9148C19.4146 20.1928 19.6926 20.384 20.1618 20.384C20.6309 20.384 20.9263 20.1928 21.1001 19.9148C21.465 19.324 21.5172 18.0729 21.5172 15.8139Z" fill="black"/>
<g clip-path="url(#clip0_2110_75759)">
<circle cx="14" cy="14" r="13.5" transform="matrix(1 0 0 -1 0 31.7773)" stroke="black"/>
<path d="M19.1615 17.7773C19.1615 13.9593 18.5341 10.5259 17.5383 8.06544C17.0398 6.83393 16.4588 5.87063 15.8393 5.22323C15.221 4.57711 14.5976 4.27734 13.9948 4.27734C13.3919 4.27734 12.7686 4.57711 12.1503 5.22323C11.5308 5.87063 10.9498 6.83393 10.4513 8.06544C9.45544 10.5259 8.82812 13.9593 8.82812 17.7773C8.82812 21.5954 9.45544 25.0288 10.4513 27.4892C10.9498 28.7208 11.5308 29.6841 12.1503 30.3315C12.7686 30.9776 13.3919 31.2773 13.9948 31.2773C14.5976 31.2773 15.221 30.9776 15.8393 30.3315C16.4588 29.6841 17.0398 28.7208 17.5383 27.4892C18.5341 25.0288 19.1615 21.5954 19.1615 17.7773Z" stroke="black"/>
</g>
<g clip-path="url(#clip1_2110_75759)">
<circle cx="14" cy="14.1113" r="13.5" stroke="black"/>
<path d="M19.1615 14.1113C19.1615 17.9294 18.5341 21.3628 17.5383 23.8232C17.0398 25.0547 16.4588 26.018 15.8393 26.6654C15.221 27.3116 14.5976 27.6113 13.9948 27.6113C13.3919 27.6113 12.7686 27.3116 12.1503 26.6654C11.5308 26.018 10.9498 25.0547 10.4513 23.8232C9.45544 21.3628 8.82812 17.9294 8.82812 14.1113C8.82812 10.2933 9.45544 6.85985 10.4513 4.39943C10.9498 3.16792 11.5308 2.20461 12.1503 1.55721C12.7686 0.911094 13.3919 0.611328 13.9948 0.611328C14.5976 0.611328 15.221 0.911094 15.8393 1.55721C16.4588 2.20461 17.0398 3.16792 17.5383 4.39943C18.5341 6.85985 19.1615 10.2933 19.1615 14.1113Z" stroke="black"/>
</g>
<defs>
<clipPath id="clip0_2110_75759">
<rect width="28" height="7.77778" fill="white" transform="matrix(1 0 0 -1 0 31.8887)"/>
</clipPath>
<clipPath id="clip1_2110_75759">
<rect width="28" height="7.77778" fill="white"/>
</clipPath>
</defs>
</svg>
