<svg width="131" height="23" viewBox="0 0 131 23" fill="none" xmlns="http://www.w3.org/2000/svg">
<path d="M11.5 0L14.7513 7.02492L22.4371 7.9463L16.7608 13.2093L18.2595 20.8037L11.5 17.0315L4.74047 20.8037L6.23923 13.2093L0.56285 7.9463L8.24867 7.02492L11.5 0Z" fill="#FFBD13"/>
<path d="M38.5 0L41.7513 7.02492L49.4371 7.9463L43.7608 13.2093L45.2595 20.8037L38.5 17.0315L31.7405 20.8037L33.2392 13.2093L27.5628 7.9463L35.2487 7.02492L38.5 0Z" fill="#FFBD13"/>
<path d="M65.5 0L68.7513 7.02492L76.4371 7.9463L70.7608 13.2093L72.2595 20.8037L65.5 17.0315L58.7405 20.8037L60.2392 13.2093L54.5628 7.9463L62.2487 7.02492L65.5 0Z" fill="#FFBD13"/>
<path d="M92.5 0L95.7513 7.02492L103.437 7.9463L97.7608 13.2093L99.2595 20.8037L92.5 17.0315L85.7405 20.8037L87.2392 13.2093L81.5628 7.9463L89.2487 7.02492L92.5 0Z" fill="#FFBD13"/>
<path d="M119.5 0L122.751 7.02492L130.437 7.9463L124.761 13.2093L126.26 20.8037L119.5 17.0315L112.74 20.8037L114.239 13.2093L108.563 7.9463L116.249 7.02492L119.5 0Z" fill="#FFBD13"/>
</svg>
