<svg width="131" height="23" viewBox="0 0 131 23" fill="none" xmlns="http://www.w3.org/2000/svg">
<path d="M11.5 1.19041L14.2976 7.23493L14.4148 7.48816L14.6918 7.52137L21.305 8.31416L16.4208 12.8427L16.2162 13.0324L16.2702 13.3061L17.5598 19.8406L11.7437 16.5949L11.5 16.4589L11.2563 16.5949L5.44018 19.8406L6.72977 13.3061L6.78379 13.0324L6.57918 12.8427L1.695 8.31416L8.30818 7.52137L8.58522 7.48816L8.70242 7.23493L11.5 1.19041Z" stroke="black" stroke-opacity="0.2"/>
<path d="M38.5 1.19041L41.2976 7.23493L41.4148 7.48816L41.6918 7.52137L48.305 8.31416L43.4208 12.8427L43.2162 13.0324L43.2702 13.3061L44.5598 19.8406L38.7437 16.5949L38.5 16.4589L38.2563 16.5949L32.4402 19.8406L33.7298 13.3061L33.7838 13.0324L33.5792 12.8427L28.695 8.31416L35.3082 7.52137L35.5852 7.48816L35.7024 7.23493L38.5 1.19041Z" stroke="black" stroke-opacity="0.2"/>
<path d="M65.5 1.19041L68.2976 7.23493L68.4148 7.48816L68.6918 7.52137L75.305 8.31416L70.4208 12.8427L70.2162 13.0324L70.2702 13.3061L71.5598 19.8406L65.7437 16.5949L65.5 16.4589L65.2563 16.5949L59.4402 19.8406L60.7298 13.3061L60.7838 13.0324L60.5792 12.8427L55.695 8.31416L62.3082 7.52137L62.5852 7.48816L62.7024 7.23493L65.5 1.19041Z" stroke="black" stroke-opacity="0.2"/>
<path d="M92.5 1.19041L95.2976 7.23493L95.4148 7.48816L95.6918 7.52137L102.305 8.31416L97.4208 12.8427L97.2162 13.0324L97.2702 13.3061L98.5598 19.8406L92.7437 16.5949L92.5 16.4589L92.2563 16.5949L86.4402 19.8406L87.7298 13.3061L87.7838 13.0324L87.5792 12.8427L82.695 8.31416L89.3082 7.52137L89.5852 7.48816L89.7024 7.23493L92.5 1.19041Z" stroke="black" stroke-opacity="0.2"/>
<path d="M119.5 1.19041L122.298 7.23493L122.415 7.48816L122.692 7.52137L129.305 8.31416L124.421 12.8427L124.216 13.0324L124.27 13.3061L125.56 19.8406L119.744 16.5949L119.5 16.4589L119.256 16.5949L113.44 19.8406L114.73 13.3061L114.784 13.0324L114.579 12.8427L109.695 8.31416L116.308 7.52137L116.585 7.48816L116.702 7.23493L119.5 1.19041Z" stroke="black" stroke-opacity="0.2"/>
</svg>
