<svg width="20" height="20" viewBox="0 0 20 20" fill="none" xmlns="http://www.w3.org/2000/svg">
<rect width="20" height="20" fill="white"/>
<path d="M12.4987 13.3337C15.7204 13.3337 18.332 10.722 18.332 7.50033C18.332 6.92118 18.2476 6.36175 18.0905 5.83366L16.051 7.87314C15.391 8.53317 15.0609 8.86318 14.6804 8.98683C14.3457 9.09559 13.9851 9.09559 13.6503 8.98683C13.2698 8.86318 12.9398 8.53317 12.2797 7.87314L12.1259 7.71928C11.4659 7.05925 11.1358 6.72923 11.0122 6.34869C10.9034 6.01395 10.9034 5.65337 11.0122 5.31863C11.1358 4.93808 11.4659 4.60807 12.1259 3.94804L14.1654 1.90856C13.6373 1.75139 13.0778 1.66699 12.4987 1.66699C9.27704 1.66699 6.66536 4.27866 6.66536 7.50033C6.66536 8.39499 6.72208 9.65928 7.08203 10.417L2.08203 15.417C2.01565 15.4834 1.98246 15.5166 1.95575 15.5459C1.37793 16.1816 1.37793 17.1524 1.95575 17.788C1.98246 17.8174 2.01565 17.8506 2.08203 17.917L2.08209 17.9171C2.14843 17.9834 2.18161 18.0166 2.21098 18.0433C2.84666 18.6211 3.8174 18.6211 4.45308 18.0433C4.48246 18.0166 4.51564 17.9834 4.58198 17.917L4.58203 17.917L9.58203 12.917C10.3397 13.2769 11.604 13.3337 12.4987 13.3337Z" fill="black" stroke="black" stroke-width="1.25" stroke-linecap="round" stroke-linejoin="round"/>
</svg>
