<svg width="268" height="268" viewBox="0 0 268 268" fill="none" xmlns="http://www.w3.org/2000/svg">
<path d="M128.989 217.027L67.1073 253.341L5.41371 218.072L5.36011 126.925L21.3865 117.545" stroke="white" stroke-linecap="round" stroke-linejoin="round"/>
<path d="M237.18 40.468L250.312 48.4008L256.476 51.992V64.4808" stroke="white" stroke-linecap="round" stroke-linejoin="round"/>
<path d="M112.373 64.2933L194.729 16.0801L210.085 25.0045" stroke="white" stroke-linecap="round" stroke-linejoin="round"/>
<path d="M91.6829 167.446L121.324 150.321" stroke="white" stroke-linecap="round" stroke-linejoin="round"/>
<path d="M67.1074 253.341V162.381L256.476 51.9922" stroke="white" stroke-linecap="round" stroke-linejoin="round"/>
<path d="M5.36011 126.925L67.1073 162.381" stroke="white" stroke-linecap="round" stroke-linejoin="round"/>
<path d="M79.489 128.185V137.859" stroke="white" stroke-linecap="round" stroke-linejoin="round"/>
<path d="M57.9954 137.859V128.185" stroke="white" stroke-linecap="round" stroke-linejoin="round"/>
<path d="M68.7422 135.554C74.6775 135.554 79.489 132.255 79.489 128.184C79.489 124.114 74.6775 120.814 68.7422 120.814C62.8069 120.814 57.9954 124.114 57.9954 128.184C57.9954 132.255 62.8069 135.554 68.7422 135.554Z" stroke="white" stroke-linecap="round" stroke-linejoin="round"/>
<path d="M79.4891 137.859C79.4891 141.906 74.6651 145.202 68.7691 145.202C62.8731 145.202 58.0491 141.906 58.0491 137.859" stroke="white" stroke-linecap="round" stroke-linejoin="round"/>
<path d="M107.709 112.533V122.181" stroke="white" stroke-linecap="round" stroke-linejoin="round"/>
<path d="M86.2158 122.181V112.533" stroke="white" stroke-linecap="round" stroke-linejoin="round"/>
<path d="M96.9626 119.903C102.898 119.903 107.709 116.604 107.709 112.533C107.709 108.463 102.898 105.163 96.9626 105.163C91.0273 105.163 86.2158 108.463 86.2158 112.533C86.2158 116.604 91.0273 119.903 96.9626 119.903Z" stroke="white" stroke-linecap="round" stroke-linejoin="round"/>
<path d="M107.71 122.181C107.71 126.255 102.886 129.551 96.9895 129.551C91.0935 129.551 86.2695 126.255 86.2695 122.181" stroke="white" stroke-linecap="round" stroke-linejoin="round"/>
<path d="M135.93 96.8555V106.53" stroke="white" stroke-linecap="round" stroke-linejoin="round"/>
<path d="M114.436 106.53V96.8555" stroke="white" stroke-linecap="round" stroke-linejoin="round"/>
<path d="M125.183 104.225C131.118 104.225 135.93 100.926 135.93 96.8554C135.93 92.785 131.118 89.4854 125.183 89.4854C119.248 89.4854 114.436 92.785 114.436 96.8554C114.436 100.926 119.248 104.225 125.183 104.225Z" stroke="white" stroke-linecap="round" stroke-linejoin="round"/>
<path d="M135.93 106.53C135.93 110.577 131.133 113.873 125.21 113.873C119.287 113.873 114.49 110.577 114.49 106.53" stroke="white" stroke-linecap="round" stroke-linejoin="round"/>
<path d="M52.6353 108.621V118.269" stroke="white" stroke-linecap="round" stroke-linejoin="round"/>
<path d="M31.1416 118.269V108.621" stroke="white" stroke-linecap="round" stroke-linejoin="round"/>
<path d="M41.8884 115.99C47.8237 115.99 52.6352 112.691 52.6352 108.62C52.6352 104.55 47.8237 101.25 41.8884 101.25C35.9531 101.25 31.1416 104.55 31.1416 108.62C31.1416 112.691 35.9531 115.99 41.8884 115.99Z" stroke="white" stroke-linecap="round" stroke-linejoin="round"/>
<path d="M52.6353 118.269C52.6353 122.342 47.8113 125.639 41.9153 125.639C36.0193 125.639 31.1953 122.342 31.1953 118.269" stroke="white" stroke-linecap="round" stroke-linejoin="round"/>
<path d="M80.8557 92.9424V102.617" stroke="white" stroke-linecap="round" stroke-linejoin="round"/>
<path d="M59.3621 102.617V92.9424" stroke="white" stroke-linecap="round" stroke-linejoin="round"/>
<path d="M70.1089 100.313C76.0442 100.313 80.8557 97.0128 80.8557 92.9425C80.8557 88.8722 76.0442 85.5725 70.1089 85.5725C64.1736 85.5725 59.3621 88.8722 59.3621 92.9425C59.3621 97.0128 64.1736 100.313 70.1089 100.313Z" stroke="white" stroke-linecap="round" stroke-linejoin="round"/>
<path d="M80.8558 102.617C80.8558 106.664 76.0318 109.96 70.1358 109.96C64.2398 109.96 59.4158 106.664 59.4158 102.617" stroke="white" stroke-linecap="round" stroke-linejoin="round"/>
<path d="M109.076 77.2915V86.9395" stroke="white" stroke-linecap="round" stroke-linejoin="round"/>
<path d="M87.5825 86.9395V77.2915" stroke="white" stroke-linecap="round" stroke-linejoin="round"/>
<path d="M98.3293 84.6614C104.265 84.6614 109.076 81.3617 109.076 77.2914C109.076 73.221 104.265 69.9214 98.3293 69.9214C92.394 69.9214 87.5825 73.221 87.5825 77.2914C87.5825 81.3617 92.394 84.6614 98.3293 84.6614Z" stroke="white" stroke-linecap="round" stroke-linejoin="round"/>
<path d="M109.076 86.9395C109.076 91.0131 104.279 94.3095 98.3562 94.3095C92.4334 94.3095 87.6362 91.0131 87.6362 86.9395" stroke="white" stroke-linecap="round" stroke-linejoin="round"/>
<path d="M91.1738 148.955V238.735" stroke="white" stroke-linecap="round" stroke-linejoin="round"/>
<path d="M42.6925 202.715L28.3813 194.407V175.299L42.6925 183.607V202.715Z" stroke="white" stroke-linecap="round" stroke-linejoin="round"/>
<path d="M45.6513 217.892C46.9075 217.167 46.906 214.813 45.6479 212.634C44.3898 210.455 42.3515 209.276 41.0953 210.001C39.8391 210.727 39.8407 213.081 41.0988 215.26C42.3569 217.439 44.3951 218.618 45.6513 217.892Z" fill="#9E9EA0"/>
<path d="M52.1262 242.031L52.153 178.113L19.0818 159.112L19.1622 224.102" stroke="white" stroke-linecap="round" stroke-linejoin="round"/>
<path d="M182.213 69.6799C183.145 70.2288 184.198 70.5381 185.278 70.5802C186.359 70.6223 187.433 70.3958 188.404 69.9211L192.344 67.6431C193.376 66.916 194.196 65.9268 194.719 64.7774C195.242 63.628 195.449 62.3599 195.318 61.1039C195.125 57.6061 194.109 54.2032 192.354 51.1717C190.598 48.1402 188.152 45.5656 185.215 43.6571C184.206 42.93 183.024 42.4805 181.787 42.3535C180.55 42.2266 179.302 42.4265 178.166 42.9335L174.227 45.2115C173.299 45.8472 172.546 46.7052 172.036 47.7071C171.525 48.7089 171.274 49.8228 171.306 50.9467" stroke="white" stroke-linecap="round" stroke-linejoin="round"/>
<path d="M162.783 76.4337V59.5764C162.695 58.6465 162.851 57.7097 163.237 56.8588C163.622 56.008 164.224 55.2726 164.981 54.7257L175.058 48.91C175.919 48.5184 176.868 48.3617 177.81 48.4558C178.751 48.5499 179.651 48.8916 180.418 49.446C182.6 50.8719 184.417 52.7915 185.721 55.0495C187.024 57.3076 187.778 59.8407 187.922 62.444C188.01 63.374 187.853 64.3108 187.468 65.1617C187.082 66.0125 186.481 66.7479 185.724 67.2948L179.453 71.3952V75.844C179.453 78.9528 175.781 81.4721 171.225 81.4721C166.669 81.4721 162.998 78.9528 162.998 75.844" stroke="white" stroke-linecap="round" stroke-linejoin="round"/>
<path d="M223.726 44.8095C224.665 45.3543 225.724 45.6589 226.808 45.6963C227.893 45.7337 228.97 45.5027 229.944 45.0239L233.884 42.7459C234.911 42.0219 235.726 41.0363 236.244 39.8912C236.763 38.7461 236.965 37.4833 236.832 36.2335C236.639 32.735 235.627 29.3307 233.876 26.2954C232.126 23.2601 229.686 20.6788 226.755 18.7599C225.738 18.0147 224.54 17.5568 223.286 17.4342C222.032 17.3116 220.767 17.5288 219.626 18.0631L215.686 20.3143C214.754 20.9529 213.995 21.8146 213.48 22.8209C212.966 23.8272 212.711 24.9463 212.738 26.0763" stroke="white" stroke-linecap="round" stroke-linejoin="round"/>
<path d="M184.089 42.9068L216.678 24.1468C217.537 23.7513 218.485 23.5901 219.426 23.6795C220.368 23.769 221.269 24.1059 222.038 24.656C224.221 26.0819 226.037 28.0014 227.341 30.2595C228.645 32.5175 229.399 35.0506 229.542 37.654C229.635 38.5883 229.481 39.5305 229.095 40.3866C228.709 41.2426 228.106 41.9823 227.344 42.5316L195.372 61.2916" stroke="white" stroke-linecap="round" stroke-linejoin="round"/>
<path d="M226.862 18.76C226.862 18.76 229.006 17.7684 230.641 16.8036C231.502 16.4119 232.452 16.2552 233.393 16.3494C234.335 16.4435 235.234 16.7852 236.001 17.3396C238.188 18.7607 240.008 20.6792 241.313 22.9382C242.617 25.1972 243.368 27.7327 243.505 30.3376V44.0056" stroke="white" stroke-linecap="round" stroke-linejoin="round"/>
<path d="M261.917 80.5879L240.798 92.7551V196.659L261.917 184.491V80.5879Z" stroke="white" stroke-linecap="round" stroke-linejoin="round"/>
<path d="M240.798 113.552L261.917 101.358" stroke="white" stroke-linecap="round" stroke-linejoin="round"/>
<path d="M240.798 134.322L261.917 122.155" stroke="white" stroke-linecap="round" stroke-linejoin="round"/>
<path d="M240.798 155.119L261.917 142.925" stroke="white" stroke-linecap="round" stroke-linejoin="round"/>
<path d="M240.798 175.889L261.917 163.721" stroke="white" stroke-linecap="round" stroke-linejoin="round"/>
<path d="M223.619 92.6479L202.501 104.815V208.719L223.619 196.552V92.6479Z" stroke="white" stroke-linecap="round" stroke-linejoin="round"/>
<path d="M202.501 125.612L223.619 113.418" stroke="white" stroke-linecap="round" stroke-linejoin="round"/>
<path d="M202.501 146.382L223.619 134.215" stroke="white" stroke-linecap="round" stroke-linejoin="round"/>
<path d="M202.501 167.179L223.619 154.985" stroke="white" stroke-linecap="round" stroke-linejoin="round"/>
<path d="M202.501 187.949L223.619 175.755" stroke="white" stroke-linecap="round" stroke-linejoin="round"/>
<path d="M184.839 105.351L163.721 117.518V221.422L184.839 209.255V105.351Z" stroke="white" stroke-linecap="round" stroke-linejoin="round"/>
<path d="M163.748 138.315L184.839 126.121" stroke="white" stroke-linecap="round" stroke-linejoin="round"/>
<path d="M163.748 159.085L184.839 146.891" stroke="white" stroke-linecap="round" stroke-linejoin="round"/>
<path d="M163.748 179.855L184.839 167.688" stroke="white" stroke-linecap="round" stroke-linejoin="round"/>
<path d="M163.748 200.652L184.839 188.458" stroke="white" stroke-linecap="round" stroke-linejoin="round"/>
<path d="M236.001 65.5259L261.354 80.3731" stroke="white" stroke-linecap="round" stroke-linejoin="round"/>
<path d="M215.07 77.5054L240.128 91.8166" stroke="white" stroke-linecap="round" stroke-linejoin="round"/>
<path d="M202.501 208.719L185.59 198.347" stroke="white" stroke-linecap="round" stroke-linejoin="round"/>
<path d="M240.798 196.659L224.745 187.037" stroke="white" stroke-linecap="round" stroke-linejoin="round"/>
<path d="M223.619 92.6478L205.154 81.8206" stroke="white" stroke-linecap="round" stroke-linejoin="round"/>
<path d="M202.501 104.815L184.465 94.2021" stroke="white" stroke-linecap="round" stroke-linejoin="round"/>
<path d="M184.839 105.351L176.397 100.259" stroke="white" stroke-linecap="round" stroke-linejoin="round"/>
<path d="M163.748 117.518L153.752 112.078" stroke="white" stroke-linecap="round" stroke-linejoin="round"/>
<path d="M163.722 221.422L133.867 203.278V124.164" stroke="white" stroke-linecap="round" stroke-linejoin="round"/>
</svg>
