<svg width="268" height="268" viewBox="0 0 268 268" fill="none" xmlns="http://www.w3.org/2000/svg">
<path d="M130.248 43.7912L99.5083 26.0228L130.301 8.25439L161.041 26.0228L130.248 43.7912Z" stroke="white" stroke-linecap="round" stroke-linejoin="round"/>
<path d="M161.041 63.4355L130.248 81.2039L99.5083 63.4355" stroke="white" stroke-linecap="round" stroke-linejoin="round"/>
<path d="M130.248 118.644L99.5083 100.848" stroke="white" stroke-linecap="round" stroke-linejoin="round"/>
<path d="M155.145 141.665L130.248 156.056L99.5083 138.288" stroke="white" stroke-linecap="round" stroke-linejoin="round"/>
<path d="M99.5083 175.701L130.248 193.469L161.041 175.701" stroke="white" stroke-linecap="round" stroke-linejoin="round"/>
<path d="M161.041 63.4358V26.0229" stroke="white" stroke-linecap="round" stroke-linejoin="round"/>
<path d="M184.25 228.55L167.446 190.28" stroke="white" stroke-linecap="round" stroke-linejoin="round"/>
<path d="M163.614 181.597L160.934 175.701V153.51" stroke="white" stroke-linecap="round" stroke-linejoin="round"/>
<path d="M99.5083 26.0229V175.701L76.2727 228.551" stroke="white" stroke-linecap="round" stroke-linejoin="round"/>
<path d="M130.248 43.791V219.572" stroke="white" stroke-linecap="round" stroke-linejoin="round"/>
<path d="M130.221 231.338V259.746" stroke="white" stroke-linecap="round" stroke-linejoin="round"/>
<path d="M228.148 139.601L197.355 157.396L32.4011 62.1223L63.1675 44.3271" stroke="white" stroke-linecap="round" stroke-linejoin="round"/>
<path d="M228.148 139.601L161.041 63.4355V101.518" stroke="white" stroke-linecap="round" stroke-linejoin="round"/>
<path d="M197.355 157.396L130.248 81.2307" stroke="white" stroke-linecap="round" stroke-linejoin="round"/>
<path d="M90.1819 44.8631L63.1675 44.3271" stroke="white" stroke-linecap="round" stroke-linejoin="round"/>
<path d="M32.4011 62.1223L99.5083 63.4355" stroke="white" stroke-linecap="round" stroke-linejoin="round"/>
<path d="M159.272 124.406V114.168L189.556 95.8101" stroke="white" stroke-linecap="round" stroke-linejoin="round"/>
<path d="M84.9827 53.8679L70.2695 62.7923V74.0483" stroke="white" stroke-linecap="round" stroke-linejoin="round"/>
<path d="M130.302 8.25439V26.0228" stroke="white" stroke-linecap="round" stroke-linejoin="round"/>
<path d="M184.25 228.55L152.948 208.209" stroke="white" stroke-linecap="round" stroke-linejoin="round"/>
<path d="M145.497 203.358L130.248 193.469" stroke="white" stroke-linecap="round" stroke-linejoin="round"/>
<path d="M130.221 259.746L146.944 214.186" stroke="white" stroke-linecap="round" stroke-linejoin="round"/>
<path d="M154.823 192.638L161.041 175.701" stroke="white" stroke-linecap="round" stroke-linejoin="round"/>
<path d="M76.2727 228.55L130.248 193.469" stroke="white" stroke-linecap="round" stroke-linejoin="round"/>
<path d="M130.221 259.746L122.181 237.796" stroke="white" stroke-linecap="round" stroke-linejoin="round"/>
<path d="M118.831 228.604L99.5083 175.701" stroke="white" stroke-linecap="round" stroke-linejoin="round"/>
<path d="M130.248 193.469L99.5083 138.288" stroke="white" stroke-linecap="round" stroke-linejoin="round"/>
<path d="M130.248 154.877L99.5083 99.696" stroke="white" stroke-linecap="round" stroke-linejoin="round"/>
<path d="M130.248 119.153L99.5083 63.9717" stroke="white" stroke-linecap="round" stroke-linejoin="round"/>
<path d="M130.248 81.4722L99.5083 26.2642" stroke="white" stroke-linecap="round" stroke-linejoin="round"/>
<path d="M130.302 81.4722L161.041 26.2642" stroke="white" stroke-linecap="round" stroke-linejoin="round"/>
<path d="M130.248 193.469L145.229 166.669" stroke="white" stroke-linecap="round" stroke-linejoin="round"/>
<path d="M130.248 156.056L139.226 139.976" stroke="white" stroke-linecap="round" stroke-linejoin="round"/>
<path d="M130.248 118.59L139.226 102.51" stroke="white" stroke-linecap="round" stroke-linejoin="round"/>
<path d="M71.5022 258.566C117.357 239.485 152.76 200.491 179.185 159.674C182.24 166.16 184.116 171.52 190.28 175.191C192.6 176.373 195.193 176.916 197.793 176.765C200.392 176.615 202.905 175.775 205.073 174.334C209.366 171.388 212.909 167.478 215.418 162.917C220.86 154.08 224.816 144.411 227.13 134.295C238.786 131.836 249.668 126.575 258.834 118.965" stroke="white" stroke-linecap="round" stroke-linejoin="round"/>
<path d="M9.27271 117.92C20.3584 105.169 30.5233 91.6451 39.6907 77.4519C42.7191 83.8035 44.5951 89.3511 50.6519 92.9691C52.9716 94.1532 55.5649 94.6979 58.165 94.5471C60.7651 94.3964 63.2781 93.5557 65.4455 92.1115L65.8743 91.8435" stroke="white" stroke-linecap="round" stroke-linejoin="round"/>
</svg>
