<svg width="268" height="268" viewBox="0 0 268 268" fill="none" xmlns="http://www.w3.org/2000/svg">
<g opacity="0.5">
<path d="M130.247 43.7917L99.5078 26.0233L130.301 8.25488L161.041 26.0233L130.247 43.7917Z" stroke="black" stroke-linecap="round" stroke-linejoin="round"/>
<path d="M161.041 63.4355L130.247 81.2039L99.5078 63.4355" stroke="black" stroke-linecap="round" stroke-linejoin="round"/>
<path d="M130.247 118.645L99.5078 100.85" stroke="black" stroke-linecap="round" stroke-linejoin="round"/>
<path d="M155.145 141.666L130.247 156.057L99.5078 138.289" stroke="black" stroke-linecap="round" stroke-linejoin="round"/>
<path d="M99.5078 175.701L130.247 193.47L161.041 175.701" stroke="black" stroke-linecap="round" stroke-linejoin="round"/>
<path d="M161.039 63.4362V26.0234" stroke="black" stroke-linecap="round" stroke-linejoin="round"/>
<path d="M184.249 228.552L167.445 190.281" stroke="black" stroke-linecap="round" stroke-linejoin="round"/>
<path d="M163.617 181.598L160.938 175.702V153.512" stroke="black" stroke-linecap="round" stroke-linejoin="round"/>
<path d="M99.509 26.0234V175.701L76.2734 228.551" stroke="black" stroke-linecap="round" stroke-linejoin="round"/>
<path d="M130.25 43.792V219.573" stroke="black" stroke-linecap="round" stroke-linejoin="round"/>
<path d="M130.219 231.338V259.746" stroke="black" stroke-linecap="round" stroke-linejoin="round"/>
<path d="M228.146 139.602L197.352 157.397L32.3984 62.1233L63.1648 44.3281" stroke="black" stroke-linecap="round" stroke-linejoin="round"/>
<path d="M228.146 139.601L161.039 63.4355V101.518" stroke="black" stroke-linecap="round" stroke-linejoin="round"/>
<path d="M197.357 157.396L130.25 81.2305" stroke="black" stroke-linecap="round" stroke-linejoin="round"/>
<path d="M90.1863 44.8641L63.1719 44.3281" stroke="black" stroke-linecap="round" stroke-linejoin="round"/>
<path d="M32.3984 62.123L99.5056 63.4362" stroke="black" stroke-linecap="round" stroke-linejoin="round"/>
<path d="M159.273 124.406V114.169L189.557 95.8105" stroke="black" stroke-linecap="round" stroke-linejoin="round"/>
<path d="M84.9866 53.8682L70.2734 62.7926V74.0486" stroke="black" stroke-linecap="round" stroke-linejoin="round"/>
<path d="M130.305 8.25488V26.0233" stroke="black" stroke-linecap="round" stroke-linejoin="round"/>
<path d="M184.248 228.55L152.945 208.209" stroke="black" stroke-linecap="round" stroke-linejoin="round"/>
<path d="M145.499 203.358L130.25 193.469" stroke="black" stroke-linecap="round" stroke-linejoin="round"/>
<path d="M130.219 259.746L146.942 214.186" stroke="black" stroke-linecap="round" stroke-linejoin="round"/>
<path d="M154.828 192.639L161.046 175.701" stroke="black" stroke-linecap="round" stroke-linejoin="round"/>
<path d="M76.2734 228.55L130.249 193.469" stroke="black" stroke-linecap="round" stroke-linejoin="round"/>
<path d="M130.22 259.746L122.18 237.797" stroke="black" stroke-linecap="round" stroke-linejoin="round"/>
<path d="M118.831 228.604L99.5078 175.701" stroke="black" stroke-linecap="round" stroke-linejoin="round"/>
<path d="M130.247 193.47L99.5078 138.289" stroke="black" stroke-linecap="round" stroke-linejoin="round"/>
<path d="M130.247 154.878L99.5078 99.6973" stroke="black" stroke-linecap="round" stroke-linejoin="round"/>
<path d="M130.247 119.154L99.5078 63.9727" stroke="black" stroke-linecap="round" stroke-linejoin="round"/>
<path d="M130.247 81.4727L99.5078 26.2646" stroke="black" stroke-linecap="round" stroke-linejoin="round"/>
<path d="M130.305 81.4727L161.044 26.2646" stroke="black" stroke-linecap="round" stroke-linejoin="round"/>
<path d="M130.25 193.47L145.231 166.67" stroke="black" stroke-linecap="round" stroke-linejoin="round"/>
<path d="M130.25 156.057L139.228 139.977" stroke="black" stroke-linecap="round" stroke-linejoin="round"/>
<path d="M130.25 118.59L139.228 102.51" stroke="black" stroke-linecap="round" stroke-linejoin="round"/>
<path d="M71.5 258.566C117.355 239.484 152.758 200.49 179.182 159.674C182.238 166.16 184.114 171.52 190.278 175.191C192.598 176.373 195.191 176.916 197.79 176.765C200.39 176.614 202.903 175.775 205.071 174.334C209.364 171.388 212.906 167.478 215.416 162.917C220.857 154.08 224.814 144.411 227.128 134.294C238.784 131.836 249.666 126.574 258.832 118.965" stroke="black" stroke-linecap="round" stroke-linejoin="round"/>
<path d="M9.27344 117.921C20.3591 105.17 30.5241 91.6464 39.6914 77.4531C42.7198 83.8047 44.5958 89.3523 50.6526 92.9703C52.9724 94.1544 55.5657 94.6991 58.1658 94.5484C60.7659 94.3976 63.2789 93.5569 65.4462 92.1127L65.875 91.8447" stroke="black" stroke-linecap="round" stroke-linejoin="round"/>
</g>
</svg>
