<svg width="268" height="268" viewBox="0 0 268 268" fill="none" xmlns="http://www.w3.org/2000/svg">
<g opacity="1">
<path d="M122.523 39.9367L171.273 11.4482L186.147 20.319" stroke="white" stroke-linecap="round" stroke-linejoin="round"/>
<path d="M228.977 44.8135L247.791 55.9355V167.691L95.2718 257.177L18.8382 213.466L18.7578 100.557L48.0234 83.4859" stroke="white" stroke-linecap="round" stroke-linejoin="round"/>
<path d="M247.792 55.9355L95.2734 144.483V257.177" stroke="white" stroke-linecap="round" stroke-linejoin="round"/>
<path d="M179.152 140.678L178.938 161.903" stroke="white" stroke-linecap="round" stroke-linejoin="round"/>
<path d="M29.0234 106.025L95.273 144.483" stroke="white" stroke-linecap="round" stroke-linejoin="round"/>
<path d="M133.163 208.722C133.163 208.722 110.866 216.119 121.934 182.405C121.934 182.405 132.654 157.561 135.334 143.732C135.334 143.732 158.757 144.376 159.91 168.415C160.693 174.707 159.787 181.093 157.286 186.919C154.786 192.745 150.779 197.801 145.679 201.567C145.679 201.567 163.849 172.328 141.712 161.796C142.832 170.321 141.425 178.987 137.666 186.72C137.666 186.72 137.853 181.172 133.672 179.644C133.672 179.644 130.992 188.086 129.652 192.348C129.599 192.348 125.204 204.917 133.163 208.722Z" stroke="white" stroke-linecap="round" stroke-linejoin="round"/>
<path fill-rule="evenodd" clip-rule="evenodd" d="M226.696 96.4043L208.178 107.098L197.672 143.76L210.188 136.551L199.655 173.803L232.699 110.849L217.182 119.801L226.696 96.4043Z" stroke="white" stroke-linecap="round" stroke-linejoin="round"/>
<path d="M114.938 32.1104V75.2316" stroke="white" stroke-linecap="round" stroke-linejoin="round"/>
<path d="M90.5781 75.2316V32.1104" stroke="white" stroke-linecap="round" stroke-linejoin="round"/>
<path d="M102.772 40.445C109.507 40.445 114.966 36.7134 114.966 32.1102C114.966 27.507 109.507 23.7754 102.772 23.7754C96.0375 23.7754 90.5781 27.507 90.5781 32.1102C90.5781 36.7134 96.0375 40.445 102.772 40.445Z" stroke="white" stroke-linecap="round" stroke-linejoin="round"/>
<path d="M114.939 75.2578C114.939 79.8674 109.579 83.5926 102.772 83.5926C95.9649 83.5926 90.5781 79.8674 90.5781 75.2578" stroke="white" stroke-linecap="round" stroke-linejoin="round"/>
<path d="M80.9297 49.7715V92.8659" stroke="white" stroke-linecap="round" stroke-linejoin="round"/>
<path d="M56.5703 92.8659V49.7715" stroke="white" stroke-linecap="round" stroke-linejoin="round"/>
<path d="M68.7643 58.1061C75.4988 58.1061 80.9583 54.3745 80.9583 49.7713C80.9583 45.1681 75.4988 41.4365 68.7643 41.4365C62.0297 41.4365 56.5703 45.1681 56.5703 49.7713C56.5703 54.3745 62.0297 58.1061 68.7643 58.1061Z" stroke="white" stroke-linecap="round" stroke-linejoin="round"/>
<path d="M80.9315 92.8662C80.9315 97.4758 75.5715 101.228 68.7643 101.228C61.9571 101.228 56.5703 97.4758 56.5703 92.8662" stroke="white" stroke-linecap="round" stroke-linejoin="round"/>
<path d="M76.723 246.618V198.566L35.1562 174.285V222.525" stroke="white" stroke-linecap="round" stroke-linejoin="round"/>
<path d="M76.723 210.626L35.1562 186.346" stroke="white" stroke-linecap="round" stroke-linejoin="round"/>
<path d="M76.723 222.685L35.1562 198.404" stroke="white" stroke-linecap="round" stroke-linejoin="round"/>
<path d="M76.723 234.746L35.1562 210.465" stroke="white" stroke-linecap="round" stroke-linejoin="round"/>
<path d="M152.217 85.5764C153.535 86.342 155.022 86.7718 156.545 86.8279C158.069 86.8839 159.583 86.5646 160.954 85.8979L166.475 82.7087C167.92 81.6886 169.067 80.3014 169.797 78.6903C170.527 77.0791 170.814 75.3023 170.629 73.5431C170.354 68.6206 168.922 63.8323 166.449 59.5669C163.976 55.3015 160.533 51.6793 156.398 48.9943C154.97 47.9564 153.291 47.3176 151.534 47.1433C149.777 46.969 148.006 47.2657 146.401 48.0028L140.854 51.2187C139.553 52.1095 138.496 53.3121 137.78 54.7166C137.063 56.1211 136.711 57.6827 136.753 59.2587" stroke="white" stroke-linecap="round" stroke-linejoin="round"/>
<path d="M124.963 95.0101V71.3993C124.824 70.0892 125.037 68.7657 125.578 67.5647C126.12 66.3637 126.971 65.3285 128.045 64.5653L142.169 56.5253C143.364 55.9779 144.683 55.7564 145.992 55.8835C147.3 56.0106 148.552 56.4817 149.619 57.2489C152.683 59.2522 155.232 61.9479 157.062 65.1182C158.892 68.2886 159.95 71.8448 160.152 75.4997C160.291 76.8098 160.078 78.1334 159.537 79.3343C158.995 80.5353 158.144 81.5706 157.07 82.3337L148.36 87.9617L148.226 94.2061C148.226 98.6013 143.053 102.246 136.675 102.246C130.297 102.246 125.097 98.7085 125.097 94.2061" stroke="white" stroke-linecap="round" stroke-linejoin="round"/>
<path d="M210.696 50.656C212.014 51.4107 213.496 51.8319 215.014 51.8833C216.532 51.9347 218.04 51.6146 219.406 50.9508L224.927 47.7616C226.372 46.7415 227.519 45.3543 228.249 43.7431C228.979 42.132 229.266 40.3552 229.081 38.596C228.819 33.6833 227.401 28.9017 224.942 24.6405C222.483 20.3793 219.053 16.759 214.93 14.074C213.503 13.0233 211.819 12.3767 210.055 12.2022C208.291 12.0277 206.513 12.3318 204.907 13.0824L199.279 16.2984C197.971 17.1843 196.908 18.3852 196.187 19.7903C195.465 21.1954 195.109 22.7595 195.152 24.3384" stroke="white" stroke-linecap="round" stroke-linejoin="round"/>
<path d="M154.844 47.9766L200.645 21.4713C201.841 20.9222 203.162 20.7022 204.472 20.8341C205.782 20.966 207.033 21.4451 208.095 22.2218C211.16 24.2176 213.711 26.9079 215.541 30.0743C217.371 33.2407 218.428 36.794 218.628 40.4457C218.767 41.7559 218.554 43.0794 218.013 44.2804C217.471 45.4813 216.62 46.5166 215.546 47.2797L170.629 73.5437" stroke="white" stroke-linecap="round" stroke-linejoin="round"/>
<path d="M214.93 14.0742C214.93 14.0742 217.958 12.6538 220.29 11.3942C221.486 10.845 222.807 10.6251 224.117 10.757C225.427 10.8889 226.677 11.3679 227.74 12.1446C230.808 14.1431 233.361 16.8377 235.191 20.009C237.021 23.1804 238.077 26.739 238.272 30.3954V49.5842" stroke="white" stroke-linecap="round" stroke-linejoin="round"/>
</g>
</svg>
