<svg width="268" height="268" viewBox="0 0 268 268" fill="none" xmlns="http://www.w3.org/2000/svg">
<path d="M128.988 217.027L67.1066 253.341L5.41298 218.072L5.35938 126.925L21.3858 117.545" stroke="#9E9EA0" stroke-linecap="round" stroke-linejoin="round"/>
<path d="M237.18 40.4688L250.312 48.4016L256.476 51.9928V64.4816" stroke="#9E9EA0" stroke-linecap="round" stroke-linejoin="round"/>
<path d="M112.375 64.2933L194.731 16.0801L210.088 25.0045" stroke="#9E9EA0" stroke-linecap="round" stroke-linejoin="round"/>
<path d="M91.6797 167.446L121.32 150.32" stroke="#9E9EA0" stroke-linecap="round" stroke-linejoin="round"/>
<path d="M67.1094 253.341V162.381L256.478 51.9922" stroke="#9E9EA0" stroke-linecap="round" stroke-linejoin="round"/>
<path d="M5.35938 126.926L67.1066 162.382" stroke="#9E9EA0" stroke-linecap="round" stroke-linejoin="round"/>
<path d="M79.4844 128.184V137.858" stroke="#9E9EA0" stroke-linecap="round" stroke-linejoin="round"/>
<path d="M57.9922 137.858V128.184" stroke="#9E9EA0" stroke-linecap="round" stroke-linejoin="round"/>
<path d="M68.739 135.554C74.6743 135.554 79.4858 132.255 79.4858 128.184C79.4858 124.114 74.6743 120.814 68.739 120.814C62.8037 120.814 57.9922 124.114 57.9922 128.184C57.9922 132.255 62.8037 135.554 68.739 135.554Z" stroke="#9E9EA0" stroke-linecap="round" stroke-linejoin="round"/>
<path d="M79.4869 137.859C79.4869 141.906 74.6629 145.203 68.7669 145.203C62.8709 145.203 58.0469 141.906 58.0469 137.859" stroke="#9E9EA0" stroke-linecap="round" stroke-linejoin="round"/>
<path d="M107.711 112.533V122.181" stroke="#9E9EA0" stroke-linecap="round" stroke-linejoin="round"/>
<path d="M86.2188 122.181V112.533" stroke="#9E9EA0" stroke-linecap="round" stroke-linejoin="round"/>
<path d="M96.9656 119.904C102.901 119.904 107.712 116.604 107.712 112.534C107.712 108.464 102.901 105.164 96.9656 105.164C91.0303 105.164 86.2188 108.464 86.2188 112.534C86.2188 116.604 91.0303 119.904 96.9656 119.904Z" stroke="#9E9EA0" stroke-linecap="round" stroke-linejoin="round"/>
<path d="M107.713 122.182C107.713 126.255 102.889 129.552 96.9934 129.552C91.0974 129.552 86.2734 126.255 86.2734 122.182" stroke="#9E9EA0" stroke-linecap="round" stroke-linejoin="round"/>
<path d="M135.93 96.8535V106.528" stroke="#9E9EA0" stroke-linecap="round" stroke-linejoin="round"/>
<path d="M114.438 106.528V96.8535" stroke="#9E9EA0" stroke-linecap="round" stroke-linejoin="round"/>
<path d="M125.184 104.224C131.12 104.224 135.931 100.925 135.931 96.8544C135.931 92.784 131.12 89.4844 125.184 89.4844C119.249 89.4844 114.438 92.784 114.438 96.8544C114.438 100.925 119.249 104.224 125.184 104.224Z" stroke="#9E9EA0" stroke-linecap="round" stroke-linejoin="round"/>
<path d="M135.932 106.529C135.932 110.576 131.135 113.873 125.212 113.873C119.289 113.873 114.492 110.576 114.492 106.529" stroke="#9E9EA0" stroke-linecap="round" stroke-linejoin="round"/>
<path d="M52.6328 108.619V118.267" stroke="#9E9EA0" stroke-linecap="round" stroke-linejoin="round"/>
<path d="M31.1406 118.267V108.619" stroke="#9E9EA0" stroke-linecap="round" stroke-linejoin="round"/>
<path d="M41.8874 115.99C47.8227 115.99 52.6342 112.69 52.6342 108.62C52.6342 104.55 47.8227 101.25 41.8874 101.25C35.9521 101.25 31.1406 104.55 31.1406 108.62C31.1406 112.69 35.9521 115.99 41.8874 115.99Z" stroke="#9E9EA0" stroke-linecap="round" stroke-linejoin="round"/>
<path d="M52.6353 118.268C52.6353 122.341 47.8113 125.638 41.9153 125.638C36.0193 125.638 31.1953 122.341 31.1953 118.268" stroke="#9E9EA0" stroke-linecap="round" stroke-linejoin="round"/>
<path d="M80.8516 92.9414V102.616" stroke="#9E9EA0" stroke-linecap="round" stroke-linejoin="round"/>
<path d="M59.3594 102.616V92.9414" stroke="#9E9EA0" stroke-linecap="round" stroke-linejoin="round"/>
<path d="M70.1062 100.312C76.0415 100.312 80.853 97.0126 80.853 92.9423C80.853 88.8719 76.0415 85.5723 70.1062 85.5723C64.1709 85.5723 59.3594 88.8719 59.3594 92.9423C59.3594 97.0126 64.1709 100.312 70.1062 100.312Z" stroke="#9E9EA0" stroke-linecap="round" stroke-linejoin="round"/>
<path d="M80.8541 102.617C80.8541 106.664 76.0301 109.96 70.1341 109.96C64.2381 109.96 59.4141 106.664 59.4141 102.617" stroke="#9E9EA0" stroke-linecap="round" stroke-linejoin="round"/>
<path d="M109.07 77.291V86.939" stroke="#9E9EA0" stroke-linecap="round" stroke-linejoin="round"/>
<path d="M87.5781 86.939V77.291" stroke="#9E9EA0" stroke-linecap="round" stroke-linejoin="round"/>
<path d="M98.3249 84.6619C104.26 84.6619 109.072 81.3622 109.072 77.2919C109.072 73.2215 104.26 69.9219 98.3249 69.9219C92.3896 69.9219 87.5781 73.2215 87.5781 77.2919C87.5781 81.3622 92.3896 84.6619 98.3249 84.6619Z" stroke="#9E9EA0" stroke-linecap="round" stroke-linejoin="round"/>
<path d="M109.073 86.9395C109.073 91.0131 104.276 94.3095 98.3528 94.3095C92.43 94.3095 87.6328 91.0131 87.6328 86.9395" stroke="#9E9EA0" stroke-linecap="round" stroke-linejoin="round"/>
<path d="M91.1719 148.955V238.735" stroke="#9E9EA0" stroke-linecap="round" stroke-linejoin="round"/>
<path d="M42.694 202.715L28.3828 194.407V175.299L42.694 183.607V202.715Z" stroke="#9E9EA0" stroke-linecap="round" stroke-linejoin="round"/>
<path d="M45.6508 217.892C46.907 217.167 46.9055 214.813 45.6474 212.634C44.3893 210.455 42.351 209.276 41.0948 210.001C39.8387 210.727 39.8402 213.081 41.0983 215.26C42.3564 217.439 44.3947 218.618 45.6508 217.892Z" fill="#9E9EA0"/>
<path d="M52.1225 242.031L52.1493 178.113L19.0781 159.111L19.1585 224.101" stroke="#9E9EA0" stroke-linecap="round" stroke-linejoin="round"/>
<path d="M182.215 69.6799C183.146 70.2288 184.199 70.5381 185.28 70.5802C186.36 70.6223 187.434 70.3958 188.406 69.9211L192.345 67.6431C193.378 66.916 194.198 65.9268 194.72 64.7774C195.243 63.628 195.45 62.3599 195.32 61.1039C195.127 57.6061 194.111 54.2032 192.356 51.1717C190.6 48.1402 188.154 45.5656 185.216 43.6571C184.208 42.93 183.026 42.4805 181.789 42.3535C180.552 42.2266 179.303 42.4265 178.168 42.9335L174.228 45.2115C173.301 45.8472 172.548 46.7052 172.037 47.7071C171.527 48.7089 171.276 49.8228 171.307 50.9467" stroke="#9E9EA0" stroke-linecap="round" stroke-linejoin="round"/>
<path d="M162.782 76.4322V59.575C162.694 58.645 162.85 57.7082 163.235 56.8573C163.621 56.0065 164.222 55.2711 164.979 54.7242L175.056 48.9086C175.917 48.5169 176.867 48.3602 177.808 48.4543C178.75 48.5485 179.649 48.8901 180.416 49.4446C182.599 50.8705 184.416 52.79 185.719 55.0481C187.023 57.3061 187.777 59.8392 187.92 62.4426C188.008 63.3725 187.852 64.3094 187.466 65.1602C187.081 66.0111 186.48 66.7464 185.723 67.2934L179.451 71.3938V75.8426C179.451 78.9514 175.78 81.4706 171.224 81.4706C166.668 81.4706 162.996 78.9514 162.996 75.8426" stroke="#9E9EA0" stroke-linecap="round" stroke-linejoin="round"/>
<path d="M223.724 44.8091C224.663 45.3538 225.722 45.6584 226.806 45.6958C227.891 45.7332 228.968 45.5022 229.942 45.0235L233.882 42.7455C234.909 42.0214 235.724 41.0358 236.242 39.8907C236.761 38.7457 236.964 37.4828 236.83 36.2331C236.637 32.7345 235.625 29.3302 233.874 26.2949C232.124 23.2596 229.685 20.6783 226.753 18.7595C225.736 18.0142 224.538 17.5563 223.284 17.4337C222.03 17.3111 220.765 17.5283 219.624 18.0627L215.684 20.3139C214.752 20.9524 213.993 21.8141 213.479 22.8204C212.964 23.8267 212.709 24.9458 212.736 26.0759" stroke="#9E9EA0" stroke-linecap="round" stroke-linejoin="round"/>
<path d="M184.086 42.9056L216.675 24.1456C217.534 23.7501 218.482 23.5889 219.423 23.6783C220.365 23.7678 221.266 24.1046 222.035 24.6548C224.218 26.0806 226.034 28.0002 227.338 30.2582C228.642 32.5163 229.395 35.0494 229.539 37.6528C229.632 38.587 229.478 39.5293 229.092 40.3853C228.706 41.2413 228.103 41.981 227.341 42.5304L195.369 61.2904" stroke="#9E9EA0" stroke-linecap="round" stroke-linejoin="round"/>
<path d="M226.859 18.7595C226.859 18.7595 229.003 17.7679 230.638 16.8031C231.499 16.4114 232.449 16.2547 233.39 16.3489C234.332 16.443 235.232 16.7847 235.998 17.3391C238.186 18.7602 240.006 20.6787 241.31 22.9377C242.614 25.1967 243.365 27.7322 243.502 30.3371V44.0051" stroke="#9E9EA0" stroke-linecap="round" stroke-linejoin="round"/>
<path d="M261.915 80.5879L240.797 92.7551V196.659L261.915 184.491V80.5879Z" stroke="#9E9EA0" stroke-linecap="round" stroke-linejoin="round"/>
<path d="M240.797 113.551L261.915 101.357" stroke="#9E9EA0" stroke-linecap="round" stroke-linejoin="round"/>
<path d="M240.797 134.321L261.915 122.154" stroke="#9E9EA0" stroke-linecap="round" stroke-linejoin="round"/>
<path d="M240.797 155.118L261.915 142.924" stroke="#9E9EA0" stroke-linecap="round" stroke-linejoin="round"/>
<path d="M240.797 175.888L261.915 163.721" stroke="#9E9EA0" stroke-linecap="round" stroke-linejoin="round"/>
<path d="M223.618 92.6484L202.5 104.816V208.719L223.618 196.552V92.6484Z" stroke="#9E9EA0" stroke-linecap="round" stroke-linejoin="round"/>
<path d="M202.5 125.612L223.618 113.418" stroke="#9E9EA0" stroke-linecap="round" stroke-linejoin="round"/>
<path d="M202.5 146.382L223.618 134.215" stroke="#9E9EA0" stroke-linecap="round" stroke-linejoin="round"/>
<path d="M202.5 167.178L223.618 154.984" stroke="#9E9EA0" stroke-linecap="round" stroke-linejoin="round"/>
<path d="M202.5 187.95L223.618 175.756" stroke="#9E9EA0" stroke-linecap="round" stroke-linejoin="round"/>
<path d="M184.837 105.352L163.719 117.519V221.422L184.837 209.255V105.352Z" stroke="#9E9EA0" stroke-linecap="round" stroke-linejoin="round"/>
<path d="M163.742 138.315L184.834 126.121" stroke="#9E9EA0" stroke-linecap="round" stroke-linejoin="round"/>
<path d="M163.742 159.085L184.834 146.891" stroke="#9E9EA0" stroke-linecap="round" stroke-linejoin="round"/>
<path d="M163.742 179.855L184.834 167.688" stroke="#9E9EA0" stroke-linecap="round" stroke-linejoin="round"/>
<path d="M163.742 200.653L184.834 188.459" stroke="#9E9EA0" stroke-linecap="round" stroke-linejoin="round"/>
<path d="M236 65.5254L261.353 80.3726" stroke="#9E9EA0" stroke-linecap="round" stroke-linejoin="round"/>
<path d="M215.07 77.5059L240.128 91.8171" stroke="#9E9EA0" stroke-linecap="round" stroke-linejoin="round"/>
<path d="M202.497 208.719L185.586 198.348" stroke="#9E9EA0" stroke-linecap="round" stroke-linejoin="round"/>
<path d="M240.795 196.658L224.742 187.037" stroke="#9E9EA0" stroke-linecap="round" stroke-linejoin="round"/>
<path d="M223.621 92.6475L205.156 81.8203" stroke="#9E9EA0" stroke-linecap="round" stroke-linejoin="round"/>
<path d="M202.497 104.814L184.461 94.2012" stroke="#9E9EA0" stroke-linecap="round" stroke-linejoin="round"/>
<path d="M184.84 105.35L176.398 100.258" stroke="#9E9EA0" stroke-linecap="round" stroke-linejoin="round"/>
<path d="M163.746 117.519L153.75 112.078" stroke="#9E9EA0" stroke-linecap="round" stroke-linejoin="round"/>
<path d="M163.722 221.421L133.867 203.278V124.164" stroke="#9E9EA0" stroke-linecap="round" stroke-linejoin="round"/>
</svg>
