<svg width="319" height="326" viewBox="0 0 319 326" fill="none" xmlns="http://www.w3.org/2000/svg">
<path d="M266.864 275.276L272.565 274.024L272.35 273.047L266.65 274.299L266.864 275.276ZM272.357 273.958L276.294 278.269L277.033 277.595L273.096 273.283L272.357 273.958ZM276.248 278.057L274.484 283.62L275.438 283.922L277.201 278.359L276.248 278.057ZM274.645 283.473L268.945 284.725L269.16 285.702L274.86 284.45L274.645 283.473ZM269.153 284.791L265.215 280.479L264.477 281.154L268.414 285.465L269.153 284.791ZM265.262 280.692L267.025 275.129L266.072 274.827L264.309 280.39L265.262 280.692ZM40.9826 27.945L90.6266 22.3878L90.5153 21.394L40.8713 26.9512L40.9826 27.945ZM90.404 22.2614L111.055 67.7636L111.965 67.3504L91.3146 21.8481L90.404 22.2614ZM74.4795 101.163L31.0349 76.4757L30.5408 77.3451L73.9855 102.033L74.4795 101.163ZM76.9651 56.8815L75.456 64.2435L76.4357 64.4443L77.9448 57.0823L76.9651 56.8815ZM75.456 64.2435C74.6781 68.0388 70.9706 70.4832 67.1749 69.7032L66.9736 70.6827C71.3103 71.5739 75.5468 68.781 76.4357 64.4443L75.456 64.2435ZM71.5009 48.5966C75.2968 49.3766 77.7431 53.086 76.9651 56.8815L77.9448 57.0823C78.8336 52.7458 76.0387 48.5082 71.7022 47.617L71.5009 48.5966ZM38.0879 41.73L71.5009 48.5966L71.7022 47.617L38.2892 40.7505L38.0879 41.73ZM38.4587 41.0076L41.1717 27.7723L40.1921 27.5714L37.4791 40.8068L38.4587 41.0076ZM31.1407 76.7088L33.8182 63.6466L32.8385 63.4458L30.161 76.508L31.1407 76.7088ZM67.1749 69.7032L33.7622 62.8367L33.5609 63.8162L66.9736 70.6827L67.1749 69.7032ZM80.5664 95.4009L74.2251 101.192L74.8994 101.93L81.2407 96.1394L80.5664 95.4009ZM111.106 67.5128L104.764 73.3039L105.439 74.0423L111.781 68.2512L111.106 67.5128ZM289.584 261.058C299.367 271.772 298.617 288.383 287.91 298.161L288.584 298.899C299.7 288.749 300.477 271.505 290.322 260.384L289.584 261.058ZM287.91 298.161C277.202 307.938 260.591 307.18 250.808 296.467L250.07 297.141C260.225 308.262 277.469 309.05 288.584 298.899L287.91 298.161ZM250.808 296.467C245.061 290.173 242.948 281.845 244.355 274.06L243.371 273.882C241.911 281.961 244.104 290.608 250.07 297.141L250.808 296.467ZM244.162 273.392L81.6714 95.4511L80.933 96.1254L243.424 274.066L244.162 273.392ZM267.853 252.602C275.733 251.906 283.836 254.764 289.584 261.058L290.322 260.384C284.356 253.85 275.943 250.884 267.765 251.605L267.853 252.602ZM104.714 74.4089L267.205 252.35L267.944 251.675L105.453 73.7346L104.714 74.4089ZM244.355 274.06C244.398 273.821 244.328 273.574 244.162 273.392L243.424 274.066C243.378 274.016 243.359 273.947 243.371 273.882L244.355 274.06ZM104.764 73.3039C104.445 73.5952 104.423 74.0899 104.714 74.4089L105.453 73.7346C105.534 73.8234 105.528 73.9612 105.439 74.0423L104.764 73.3039ZM81.2407 96.1394C81.1519 96.2205 81.0141 96.2142 80.933 96.1254L81.6714 95.4511C81.3801 95.1321 80.8854 95.1096 80.5664 95.4009L81.2407 96.1394ZM33.8182 63.6466C33.794 63.7645 33.6788 63.8405 33.5609 63.8162L33.7622 62.8367C33.3389 62.7497 32.9253 63.0225 32.8385 63.4458L33.8182 63.6466ZM38.2892 40.7505C38.407 40.7747 38.4829 40.8898 38.4587 41.0076L37.4791 40.8068C37.3924 41.2298 37.6649 41.6431 38.0879 41.73L38.2892 40.7505ZM31.0349 76.4757C31.1169 76.5223 31.1596 76.6164 31.1407 76.7088L30.161 76.508C30.093 76.8398 30.2463 77.1778 30.5408 77.3451L31.0349 76.4757ZM73.9855 102.033C74.2801 102.2 74.6491 102.159 74.8994 101.93L74.2251 101.192C74.2948 101.128 74.3975 101.117 74.4795 101.163L73.9855 102.033ZM111.055 67.7636C111.016 67.6777 111.037 67.5764 111.106 67.5128L111.781 68.2512C112.031 68.0227 112.105 67.659 111.965 67.3504L111.055 67.7636ZM90.6266 22.3878C90.5328 22.3983 90.443 22.3473 90.404 22.2614L91.3146 21.8481C91.1746 21.5397 90.852 21.3564 90.5153 21.394L90.6266 22.3878ZM40.8713 26.9512C40.5344 26.9889 40.2602 27.2393 40.1921 27.5714L41.1717 27.7723C41.1528 27.8647 41.0764 27.9345 40.9826 27.945L40.8713 26.9512ZM265.215 280.479C265.268 280.537 265.286 280.618 265.262 280.692L264.309 280.39C264.224 280.656 264.288 280.947 264.477 281.154L265.215 280.479ZM268.945 284.725C269.021 284.708 269.1 284.734 269.153 284.791L268.414 285.465C268.602 285.672 268.887 285.762 269.16 285.702L268.945 284.725ZM274.484 283.62C274.508 283.546 274.569 283.49 274.645 283.473L274.86 284.45C275.133 284.39 275.353 284.189 275.438 283.922L274.484 283.62ZM276.294 278.269C276.242 278.212 276.224 278.131 276.248 278.057L277.201 278.359C277.285 278.092 277.221 277.801 277.033 277.595L276.294 278.269ZM272.565 274.024C272.489 274.04 272.41 274.015 272.357 273.958L273.096 273.283C272.907 273.077 272.623 272.987 272.35 273.047L272.565 274.024ZM267.765 251.605C267.831 251.6 267.897 251.624 267.944 251.675L267.205 252.35C267.371 252.531 267.611 252.623 267.853 252.602L267.765 251.605ZM266.65 274.299C266.377 274.359 266.157 274.56 266.072 274.827L267.025 275.129C267.002 275.203 266.941 275.259 266.864 275.276L266.65 274.299Z" fill="white"/>
<path d="M60.052 185.487C91.657 153.883 180.258 118.338 189.461 112.189L203.98 97.4339C205.736 90.5181 209.878 82.3094 215.883 73.8457C221.888 65.382 229.486 57.0434 237.716 49.8845C245.947 42.7255 261.078 27.9221 266.824 33.577L234.058 87.9178L288.887 55.29C294.633 60.9453 280.074 76.3113 273.048 84.6551C266.021 92.9989 257.805 100.729 249.439 106.869C241.072 113.008 232.931 117.281 226.044 119.147L211.524 133.903C205.524 143.203 176.096 227.701 140.316 264.477C114.301 291.217 72.0339 311.104 66.6099 309.884C62.2708 308.909 58.1202 295.3 60.4933 292.461C78.3024 277.783 101.307 265.075 122.165 241.969C149.341 211.864 172.663 153.511 171.059 151.933C169.455 150.354 112.952 175.092 82.0159 202.458C58.7012 223.082 46.9081 246.887 32.5167 264.929C29.7166 267.347 16.8633 264.222 15.8181 259.899C14.5116 254.495 33.6721 211.866 60.052 185.487Z" fill="#215FC2"/>
<path d="M189.461 112.189L189.739 112.605C189.767 112.586 189.793 112.565 189.817 112.54L189.461 112.189ZM32.5167 264.929L32.8435 265.307L32.8786 265.277L32.9075 265.241L32.5167 264.929ZM211.524 133.903L211.168 133.552C211.144 133.576 211.123 133.603 211.104 133.632L211.524 133.903ZM60.4933 292.461L60.1753 292.076L60.1395 292.105L60.1097 292.141L60.4933 292.461ZM288.887 55.29L289.238 54.9336C289.076 54.7742 288.827 54.7441 288.631 54.8603L288.887 55.29ZM226.044 119.147L225.913 118.665C225.828 118.688 225.75 118.733 225.688 118.796L226.044 119.147ZM203.98 97.4339L204.337 97.7845C204.399 97.7214 204.443 97.6428 204.465 97.5569L203.98 97.4339ZM266.824 33.577L267.252 33.8352C267.371 33.6371 267.339 33.3829 267.175 33.2207L266.824 33.577ZM234.058 87.9178L233.63 87.6596C233.511 87.856 233.542 88.1077 233.703 88.2703C233.865 88.4329 234.117 88.4647 234.314 88.3474L234.058 87.9178ZM189.183 111.774C188.068 112.519 185.711 113.731 182.337 115.358C178.976 116.978 174.64 118.992 169.592 121.338C159.498 126.029 146.566 132.039 132.934 138.845C105.691 152.446 75.5669 169.265 59.6985 185.133L60.4056 185.84C76.1422 170.104 106.121 153.349 133.381 139.74C146.999 132.94 159.919 126.936 170.013 122.245C175.059 119.9 179.402 117.882 182.771 116.258C186.128 114.64 188.553 113.397 189.739 112.605L189.183 111.774ZM59.6985 185.133C46.4626 198.369 35.0507 215.666 27.113 230.32C23.1432 237.65 20.0369 244.328 18.0032 249.519C16.9868 252.114 16.2349 254.346 15.7777 256.106C15.5492 256.986 15.392 257.757 15.3134 258.402C15.2361 259.036 15.2292 259.591 15.3321 260.016L16.3041 259.781C16.2437 259.531 16.2334 259.119 16.3061 258.523C16.3775 257.937 16.5237 257.212 16.7456 256.357C17.1892 254.649 17.926 252.458 18.9343 249.884C20.9502 244.738 24.0379 238.098 27.9923 230.797C35.9033 216.191 47.2616 198.984 60.4056 185.84L59.6985 185.133ZM15.3321 260.016C15.6415 261.296 16.787 262.393 18.2115 263.274C19.6586 264.169 21.4979 264.905 23.3763 265.424C25.2556 265.942 27.2006 266.25 28.8669 266.271C29.6999 266.281 30.4763 266.221 31.1461 266.072C31.8103 265.925 32.4066 265.684 32.8435 265.307L32.1899 264.55C31.9267 264.778 31.5088 264.968 30.93 265.096C30.357 265.223 29.6616 265.281 28.8795 265.271C27.3156 265.251 25.4569 264.961 23.6423 264.46C21.8268 263.959 20.0818 263.255 18.7374 262.423C17.3704 261.578 16.5173 260.663 16.3041 259.781L15.3321 260.016ZM32.9075 265.241C40.1128 256.208 46.6913 245.7 54.3277 234.951C61.9788 224.181 70.7304 213.108 82.3472 202.832L81.6847 202.083C69.9868 212.431 61.1845 223.573 53.5124 234.372C45.8258 245.192 39.3119 255.608 32.1258 264.617L32.9075 265.241ZM211.104 133.632C210.329 134.834 209.197 137.209 207.752 140.473C206.301 143.75 204.518 147.961 202.438 152.862C198.276 162.666 192.92 175.242 186.635 188.675C174.056 215.558 157.784 245.807 139.958 264.129L140.675 264.826C158.629 246.372 174.961 215.984 187.541 189.099C193.835 175.647 199.197 163.057 203.359 153.252C205.44 148.348 207.22 144.146 208.667 140.878C210.119 137.596 211.22 135.297 211.944 134.174L211.104 133.632ZM139.958 264.129C126.995 277.452 109.969 289.082 95.4962 297.23C88.2619 301.303 81.6755 304.501 76.5663 306.602C74.0107 307.653 71.833 308.427 70.1335 308.899C69.2833 309.135 68.5615 309.293 67.977 309.374C67.382 309.457 66.9703 309.453 66.7197 309.397L66.5002 310.372C66.9276 310.468 67.4817 310.452 68.1145 310.365C68.7577 310.275 69.5255 310.105 70.4011 309.862C72.1528 309.376 74.3704 308.586 76.9466 307.527C82.101 305.407 88.7245 302.19 95.9868 298.101C110.508 289.926 127.622 278.242 140.675 264.826L139.958 264.129ZM66.7197 309.397C65.8362 309.198 64.8567 308.312 63.9072 306.874C62.9757 305.463 62.1414 303.625 61.5092 301.714C60.8773 299.804 60.4559 297.848 60.3364 296.208C60.2766 295.387 60.2934 294.661 60.3903 294.065C60.4885 293.463 60.6615 293.04 60.8769 292.782L60.1097 292.141C59.7319 292.593 59.5155 293.216 59.4033 293.905C59.29 294.601 59.2756 295.411 59.339 296.28C59.4659 298.021 59.9084 300.06 60.5599 302.028C61.2111 303.997 62.0797 305.921 63.0727 307.425C64.0476 308.902 65.2141 310.083 66.5002 310.372L66.7197 309.397ZM60.8113 292.847C69.7055 285.517 79.8706 278.699 90.4847 270.777C101.082 262.867 112.076 253.892 122.536 242.304L121.794 241.634C111.396 253.153 100.459 262.084 89.8866 269.975C79.3318 277.853 69.0902 284.728 60.1753 292.076L60.8113 292.847ZM122.536 242.304C136.172 227.199 148.821 205.034 157.854 186.472C162.373 177.187 165.993 168.791 168.384 162.614C169.579 159.526 170.47 156.986 171.012 155.163C171.283 154.253 171.471 153.508 171.565 152.958C171.612 152.685 171.639 152.44 171.637 152.238C171.635 152.137 171.627 152.03 171.601 151.927C171.577 151.83 171.527 151.692 171.409 151.576L170.708 152.289C170.673 152.255 170.653 152.222 170.644 152.202C170.634 152.182 170.631 152.169 170.631 152.169C170.63 152.168 170.632 152.174 170.634 152.189C170.635 152.204 170.636 152.224 170.637 152.251C170.638 152.364 170.622 152.541 170.58 152.789C170.495 153.281 170.32 153.982 170.054 154.877C169.522 156.665 168.642 159.177 167.451 162.253C165.071 168.401 161.463 176.771 156.955 186.035C147.934 204.57 135.334 226.634 121.794 241.634L122.536 242.304ZM82.3472 202.832C97.7693 189.19 119.586 176.186 137.766 166.785C146.853 162.086 155.021 158.293 161.013 155.774C164.011 154.514 166.456 153.576 168.197 153.003C169.07 152.716 169.752 152.525 170.232 152.43C170.474 152.382 170.645 152.362 170.754 152.361C170.809 152.361 170.831 152.365 170.831 152.365C170.83 152.365 170.817 152.362 170.796 152.352C170.776 152.342 170.743 152.323 170.708 152.289L171.409 151.576C171.293 151.462 171.154 151.413 171.056 151.391C170.953 151.367 170.846 151.36 170.746 151.361C170.545 151.363 170.304 151.396 170.037 151.449C169.498 151.556 168.771 151.761 167.885 152.053C166.108 152.638 163.634 153.587 160.626 154.852C154.606 157.383 146.414 161.188 137.307 165.897C119.101 175.311 97.1986 188.359 81.6847 202.083L82.3472 202.832ZM288.536 55.6464C289.784 56.8743 289.988 58.667 289.343 60.9552C288.699 63.2428 287.234 65.901 285.344 68.6833C281.563 74.2463 276.198 80.1375 272.665 84.333L273.43 84.9771C276.923 80.8288 282.352 74.8651 286.171 69.2454C288.08 66.4363 289.617 63.6712 290.306 61.2264C290.994 58.7821 290.863 56.5334 289.238 54.9336L288.536 55.6464ZM272.665 84.333C265.663 92.648 257.476 100.351 249.143 106.466L249.735 107.272C258.135 101.108 266.379 93.3497 273.43 84.9771L272.665 84.333ZM249.143 106.466C240.805 112.584 232.72 116.82 225.913 118.665L226.175 119.63C233.141 117.742 241.339 113.433 249.735 107.272L249.143 106.466ZM204.465 97.5569C206.2 90.7214 210.307 82.5693 216.291 74.135L215.475 73.5564C209.449 82.0495 205.272 90.3149 203.496 97.3108L204.465 97.5569ZM216.291 74.135C222.272 65.7053 229.843 57.3959 238.044 50.2617L237.388 49.5072C229.129 56.6909 221.504 65.0587 215.475 73.5564L216.291 74.135ZM238.044 50.2617C242.183 46.662 247.988 41.2037 253.489 37.3345C256.241 35.3994 258.875 33.8928 261.152 33.2117C263.43 32.5305 265.226 32.7056 266.473 33.9334L267.175 33.2207C265.549 31.621 263.299 31.526 260.866 32.2536C258.432 32.9815 255.692 34.5628 252.914 36.5166C247.356 40.4251 241.48 45.948 237.388 49.5072L238.044 50.2617ZM266.396 33.3188L233.63 87.6596L234.486 88.176L267.252 33.8352L266.396 33.3188ZM234.314 88.3474L289.143 55.7197L288.631 54.8603L233.802 87.4881L234.314 88.3474ZM211.881 134.254L226.4 119.498L225.688 118.796L211.168 133.552L211.881 134.254ZM189.817 112.54L204.337 97.7845L203.624 97.0832L189.104 111.839L189.817 112.54Z" fill="white"/>
</svg>
