<svg width="251" height="258" viewBox="0 0 251 258" fill="none" xmlns="http://www.w3.org/2000/svg">
<path d="M183.833 69.6851C183.811 69.6062 183.804 69.5237 183.815 69.4428C183.825 69.3619 183.852 69.2844 183.893 69.2151L209.45 26.7851C209.464 26.7632 209.473 26.7389 209.476 26.7136C209.48 26.6883 209.478 26.6624 209.472 26.6377C209.465 26.6129 209.454 26.5898 209.438 26.5696C209.423 26.5494 209.403 26.5325 209.381 26.5201C207.24 25.3151 204.176 26.7826 202.168 28.0026C198.381 30.2976 194.982 33.2076 191.658 36.1426C189.447 38.0976 187.226 40.0809 184.995 42.0926C182.319 44.5076 179.46 47.4659 176.418 50.9676C170.434 57.8501 165.045 65.6826 161.943 74.1526C161.598 75.0976 161.304 76.0559 161.061 77.0276C161.008 77.2359 160.905 77.4159 160.754 77.5676C157.269 81.0693 153.777 84.6168 150.277 88.2101C149.485 89.0226 148.768 89.5476 147.819 90.0326C145.142 91.3993 142.496 92.6876 139.882 93.8976C117.317 104.34 94.5025 114.958 73.331 127.725C65.1817 132.64 57.0498 138.108 49.9793 144.39C48.7239 145.503 47.5101 146.669 46.3379 147.888C36.2805 158.335 28.0961 170.45 21.0881 183.525C18.6705 188.033 16.5409 192.543 14.6994 197.053C13.7479 199.385 12.684 202.12 12.3743 204.643C12.0371 207.385 17.5191 208.913 19.4247 209.323C20.716 209.6 24.0052 210.075 24.9043 208.928C27.1853 206.014 29.3116 203.117 31.2829 200.235C37.6491 190.93 43.9503 181.4 51.0283 172.945C57.7482 164.917 65.3199 157.868 73.7431 151.8C88.6358 141.073 105.219 131.808 122.053 124.173C125.101 122.791 127.972 121.596 130.666 120.588C131.854 120.143 132.938 119.815 133.921 119.605C134.177 119.55 134.444 119.563 134.72 119.643C134.767 119.655 134.81 119.677 134.848 119.707C134.887 119.736 134.918 119.773 134.942 119.815C135.304 120.438 134.85 121.97 134.64 122.633C133.854 125.104 132.976 127.543 132.005 129.948C126.997 142.339 121.089 154.404 114.283 166.143C108.479 176.148 101.758 186.028 93.8306 194.313C89.2119 199.139 84.2543 203.693 78.958 207.975C72.2421 213.403 65.2041 218.433 58.2036 223.465C54.6189 226.042 51.1939 228.648 47.9288 231.285C47.0297 232.013 47.0697 233.325 47.1846 234.328C47.5159 237.273 48.4017 239.958 49.8419 242.383C50.3489 243.233 51.4578 244.655 52.5817 244.565C54.4948 244.413 56.5403 243.643 58.341 242.938C60.965 241.909 63.5974 240.743 66.2381 239.438C76.8542 234.191 86.8567 227.977 96.2457 220.795C100.911 217.227 105.234 213.446 109.215 209.453C113.436 205.223 117.255 200.475 120.711 195.605C128.069 185.238 134.398 174.09 140.127 162.745C145.01 153.073 149.891 142.57 154.77 131.235C157.481 124.937 160.115 118.763 162.675 112.715C163.567 110.608 164.523 108.543 165.542 106.52C165.754 106.098 166.046 105.61 166.376 105.273C170.104 101.494 173.774 97.7584 177.385 94.0651C177.56 93.8849 177.78 93.7531 178.022 93.6826C185.889 91.3351 193.142 86.6651 199.593 81.4451C204.608 77.3901 209.293 72.8876 213.536 67.9726C217.32 63.5901 221.176 59.2601 224.585 54.4476C225.906 52.5859 226.931 50.7118 227.662 48.8251C228.167 47.5151 228.424 45.8401 227.667 44.5351C227.652 44.5088 227.632 44.4858 227.607 44.4674C227.583 44.4489 227.556 44.4355 227.526 44.4278C227.497 44.4201 227.467 44.4184 227.437 44.4226C227.407 44.4269 227.378 44.4371 227.353 44.4526C213.158 52.9059 198.959 61.3643 184.755 69.8276C184.453 70.0076 183.971 70.1551 183.833 69.6851Z" stroke="#CFCFD0" stroke-width="2"/>
<path d="M185.892 67.8402C185.799 67.9935 185.829 68.0243 185.982 67.9327C199.79 59.7077 213.594 51.4843 227.394 43.2627C227.741 43.0577 228.065 43.4352 228.258 43.6777C230.453 46.4527 228.065 50.8252 226.527 53.3027C225.1 55.601 223.045 58.341 220.361 61.5227C217.527 64.8827 215.418 67.3535 214.034 68.9352C209.289 74.3602 204.08 79.266 198.407 83.6527C194.233 86.8827 189.997 89.576 185.7 91.7327C183.427 92.8727 181.084 93.8085 178.67 94.5402C178.373 94.6285 178.119 94.7802 177.908 94.9952C174.27 98.6768 170.653 102.359 167.056 106.043C166.814 106.29 166.647 106.585 166.484 106.895C165.558 108.675 164.546 110.864 163.447 113.463C160.061 121.458 156.851 128.958 153.817 135.965C153.806 135.991 153.802 136.019 153.807 136.046C153.811 136.074 153.823 136.099 153.842 136.12L210.952 198.72C211.006 198.778 211.072 198.806 211.15 198.803C216.293 198.511 220.851 199.708 224.824 202.395C238.018 211.315 237.621 230.653 223.997 238.98C214.846 244.575 202.651 242.388 196.007 234.003C192.036 228.991 190.534 223.258 191.502 216.803C191.515 216.714 191.492 216.637 191.432 216.57L141.726 162.085C141.665 162.018 141.613 162.026 141.572 162.108C135.65 173.9 129.079 185.545 121.519 196.2C119.198 199.472 116.729 202.624 114.111 205.658C109.521 210.975 104.214 215.815 98.6868 220.16C88.2905 228.337 77.1516 235.289 65.2701 241.018C62.7376 242.239 60.1685 243.333 57.5627 244.298C56.0842 244.845 54.4508 245.368 52.9049 245.55C50.6072 245.82 48.9813 243.185 48.1196 241.308C47.0682 239.013 44.8204 232.518 47.1381 230.635C52.5078 226.28 58.0722 222.28 63.7416 218.23C73.5968 211.188 82.9774 203.878 91.4115 195.383C96.916 189.835 101.709 183.825 106.252 177.078C108.591 173.601 110.822 170.053 112.945 166.433C117.267 159.058 121.243 151.5 124.873 143.76C124.903 143.695 124.894 143.636 124.846 143.583L112.451 129.993C112.396 129.934 112.333 129.923 112.263 129.958C104.787 133.641 97.0384 137.931 89.0164 142.828C81.1825 147.608 74.3036 152.398 68.3795 157.2C60.9718 163.205 54.5133 169.995 48.6491 177.473C43.6166 183.893 38.8364 190.958 34.1436 197.863C31.4912 201.766 28.7173 205.614 25.8218 209.408C23.9212 211.895 17.8398 210.135 15.3897 209.113C13.9995 208.531 12.8872 207.772 12.0531 206.835C11.2189 205.895 11.2564 204.643 11.5311 203.48C11.8141 202.277 12.1363 201.15 12.4976 200.1C13.7164 196.568 15.3831 192.657 17.4976 188.365C23.4584 176.268 30.3915 165.304 38.2969 155.473C40.195 153.109 42.3978 150.603 44.9053 147.955C48.2753 144.395 52.1465 140.997 56.5188 137.76C62.005 133.7 67.6785 129.92 73.5393 126.42C81.2683 121.805 89.1355 117.458 97.1408 113.378C97.153 113.371 97.1635 113.362 97.1716 113.351C97.1797 113.34 97.1851 113.327 97.1876 113.314C97.19 113.3 97.1893 113.286 97.1855 113.273C97.1817 113.26 97.175 113.248 97.1658 113.238L63.5118 76.3477C63.5039 76.3392 63.4944 76.3324 63.484 76.3276C63.4735 76.3228 63.4623 76.32 63.4509 76.3196C63.4395 76.3191 63.4282 76.3209 63.4177 76.3249C63.4071 76.3288 63.3975 76.3349 63.3894 76.3427L58.6691 80.6502C58.5484 80.7598 58.3964 80.8286 58.2349 80.8465C58.0733 80.8645 57.9106 80.8308 57.77 80.7502L23.5416 61.2802C23.2003 61.0868 23.0688 60.7977 23.147 60.4127L25.2374 50.1952C25.2577 50.0954 25.2974 50.0006 25.3544 49.9162C25.4113 49.8319 25.4844 49.7596 25.5693 49.7036C25.6543 49.6477 25.7494 49.609 25.8493 49.59C25.9493 49.5709 26.052 49.5718 26.1515 49.5927C35.1026 51.4377 43.9097 53.2477 52.5727 55.0227C54.7755 55.4727 57.1831 54.3927 58.297 52.3952C58.6233 51.8102 58.8781 51.0518 59.0612 50.1202C59.4309 48.2368 59.7847 46.4693 60.1227 44.8177C60.5847 42.5577 59.3809 40.1502 57.3604 39.0677C56.8426 38.791 55.981 38.5302 54.7755 38.2852C46.5454 36.6202 38.1279 34.8918 29.5232 33.1002C29.3234 33.0586 29.1481 32.9396 29.0358 32.769C28.9234 32.5985 28.8832 32.3903 28.9238 32.1902L31.0366 21.8802C31.0738 21.7014 31.1663 21.5389 31.3008 21.4159C31.4353 21.2929 31.6051 21.2156 31.7859 21.1952L70.8595 16.8177C71.0227 16.7987 71.1877 16.8322 71.3304 16.9131C71.4732 16.994 71.5864 17.1181 71.6537 17.2677C76.995 29.051 82.3372 40.8318 87.6802 52.6102C87.91 53.1152 88.2422 53.6102 87.7177 54.0927C86.1609 55.5277 84.605 56.9485 83.0498 58.3552C83.0282 58.3752 83.0153 58.4029 83.0139 58.4324C83.0125 58.4618 83.0227 58.4907 83.0424 58.5127L121.849 101.05C121.917 101.123 121.997 101.139 122.088 101.098C128.567 98.0727 135.047 95.0468 141.529 92.0202C143.752 90.9818 145.881 89.9127 147.915 88.8127C148.438 88.531 148.885 88.2002 149.256 87.8202C152.675 84.3168 156.17 80.7618 159.741 77.1552C159.961 76.9335 160.114 76.6718 160.201 76.3702C161.826 70.6302 164.796 65.0477 168.148 60.1127C172.936 53.066 178.41 46.7435 184.569 41.1452C186.702 39.2068 188.904 37.2335 191.177 35.2252C194.321 32.4485 197.151 30.1777 199.669 28.4127C202.141 26.6827 207.888 23.1852 210.588 26.2727C210.647 26.3401 210.682 26.4246 210.69 26.514C210.698 26.6034 210.677 26.6931 210.63 26.7702L185.892 67.8402ZM62.8325 75.4902C63.1996 75.1577 63.6791 75.0502 64.0463 75.4527C75.405 87.9043 86.7537 100.343 98.0924 112.77C98.1307 112.813 98.1756 112.822 98.2272 112.795C105.728 108.97 113.282 105.263 120.89 101.675C120.904 101.669 120.916 101.659 120.926 101.647C120.936 101.634 120.942 101.62 120.946 101.605C120.949 101.589 120.948 101.573 120.944 101.558C120.94 101.543 120.933 101.529 120.922 101.518C108.15 87.5127 95.3817 73.5185 82.6178 59.5352C82.1308 59.0027 81.4714 58.4702 82.2407 57.7602C83.7974 56.3218 85.3467 54.9052 86.8885 53.5102C86.9095 53.4921 86.924 53.4677 86.9298 53.4406C86.9357 53.4135 86.9326 53.3853 86.921 53.3602C81.7461 41.9468 76.568 30.5277 71.3865 19.1027C71.1517 18.5843 70.9611 18.201 70.8145 17.9527C70.7679 17.8743 70.6996 17.8402 70.6097 17.8502L32.1455 22.1602C32.0456 22.1718 31.9857 22.2268 31.9657 22.3252L29.9802 32.0152C29.9569 32.1235 29.9994 32.1893 30.1076 32.2127C38.6807 33.9777 46.9874 35.681 55.0278 37.3227C56.2499 37.571 57.1332 37.8302 57.6776 38.1002C59.6556 39.0852 60.9893 41.0877 61.1941 43.3002C61.2574 43.9968 61.1408 45.0235 60.8445 46.3802C60.5248 47.8452 60.2043 49.3693 59.8829 50.9527C59.316 53.7552 56.8984 55.9477 54.0912 56.1077C53.4052 56.1477 52.4836 56.0477 51.3264 55.8077C42.9215 54.0593 34.579 52.3393 26.2989 50.6477C26.214 50.631 26.1623 50.6652 26.144 50.7502L24.181 60.3452C24.1627 60.4352 24.1935 60.5027 24.2734 60.5477L58.0248 79.7452C58.0531 79.7611 58.0856 79.7678 58.1179 79.7642C58.1502 79.7606 58.1805 79.7469 58.2046 79.7252C59.7231 78.3352 61.2657 76.9235 62.8325 75.4902ZM183.832 69.6852C183.809 69.6062 183.803 69.5237 183.813 69.4428C183.823 69.362 183.85 69.2844 183.892 69.2152L209.449 26.7852C209.462 26.7633 209.471 26.739 209.475 26.7136C209.478 26.6883 209.477 26.6625 209.47 26.6377C209.464 26.613 209.452 26.5898 209.437 26.5696C209.421 26.5494 209.401 26.5326 209.379 26.5202C207.239 25.3152 204.174 26.7827 202.166 28.0027C198.38 30.2977 194.981 33.2077 191.657 36.1427C189.446 38.0977 187.224 40.081 184.993 42.0927C182.318 44.5077 179.459 47.466 176.417 50.9677C170.433 57.8502 165.043 65.6827 161.941 74.1527C161.597 75.0977 161.303 76.056 161.06 77.0277C161.006 77.236 160.904 77.416 160.752 77.5677C157.268 81.0693 153.775 84.6168 150.275 88.2102C149.484 89.0227 148.767 89.5477 147.818 90.0327C145.141 91.3993 142.495 92.6877 139.881 93.8977C117.316 104.34 94.5009 114.958 73.3295 127.725C65.1801 132.64 57.0482 138.108 49.9778 144.39C48.7224 145.503 47.5086 146.669 46.3364 147.888C36.2789 158.335 28.0946 170.45 21.0866 183.525C18.669 188.033 16.5394 192.543 14.6979 197.053C13.7464 199.385 12.6824 202.12 12.3727 204.643C12.0356 207.385 17.5176 208.913 19.4232 209.323C20.7144 209.6 24.0037 210.075 24.9028 208.928C27.1838 206.014 29.31 203.117 31.2814 200.235C37.6476 190.93 43.9488 181.4 51.0267 172.945C57.7467 164.917 65.3183 157.868 73.7416 151.8C88.6343 141.073 105.218 131.808 122.051 124.173C125.1 122.791 127.971 121.596 130.665 120.588C131.852 120.143 132.937 119.815 133.919 119.605C134.176 119.55 134.442 119.563 134.718 119.643C134.765 119.655 134.809 119.677 134.847 119.707C134.885 119.736 134.917 119.773 134.941 119.815C135.303 120.438 134.848 121.97 134.638 122.633C133.853 125.104 132.974 127.543 132.004 129.948C126.995 142.339 121.088 154.404 114.281 166.143C108.477 176.148 101.756 186.028 93.8291 194.313C89.2104 199.139 84.2528 203.693 78.9564 207.975C72.2406 213.403 65.2026 218.433 58.2021 223.465C54.6173 226.042 51.1924 228.648 47.9273 231.285C47.0282 232.013 47.0682 233.325 47.1831 234.328C47.5144 237.273 48.4002 239.958 49.8404 242.383C50.3474 243.233 51.4563 244.655 52.5802 244.565C54.4933 244.413 56.5388 243.643 58.3395 242.938C60.9635 241.909 63.5959 240.743 66.2366 239.438C76.8527 234.191 86.8552 227.977 96.2442 220.795C100.91 217.227 105.233 213.446 109.214 209.453C113.435 205.223 117.253 200.475 120.71 195.605C128.068 185.238 134.396 174.09 140.126 162.745C145.009 153.073 149.89 142.57 154.768 131.235C157.479 124.937 160.114 118.763 162.673 112.715C163.565 110.608 164.521 108.543 165.54 106.52C165.752 106.098 166.045 105.61 166.374 105.273C170.102 101.494 173.772 97.7585 177.383 94.0652C177.559 93.8849 177.778 93.7531 178.02 93.6827C185.887 91.3352 193.14 86.6652 199.591 81.4452C204.606 77.3902 209.292 72.8877 213.535 67.9727C217.319 63.5902 221.175 59.2602 224.584 54.4477C225.904 52.586 226.93 50.7118 227.661 48.8252C228.165 47.5152 228.423 45.8402 227.666 44.5352C227.65 44.5088 227.63 44.4858 227.606 44.4674C227.582 44.449 227.554 44.4356 227.525 44.4279C227.496 44.4202 227.465 44.4184 227.435 44.4227C227.406 44.4269 227.377 44.4371 227.351 44.4527C213.157 52.906 198.958 61.3643 184.754 69.8277C184.451 70.0077 183.969 70.1552 183.832 69.6852ZM125.315 142.61C125.323 142.618 125.332 142.624 125.342 142.628C125.352 142.631 125.363 142.632 125.374 142.631C125.384 142.629 125.394 142.624 125.403 142.618C125.412 142.611 125.418 142.603 125.423 142.593C128.412 136.19 131.274 129.66 133.487 122.958C133.724 122.241 133.913 121.508 134.057 120.758C134.061 120.733 134.059 120.709 134.051 120.685C134.044 120.662 134.03 120.641 134.011 120.625C133.993 120.608 133.971 120.597 133.947 120.592C133.923 120.587 133.898 120.588 133.874 120.595C131.691 121.252 129.5 122.048 127.301 122.985C122.476 125.037 117.852 127.163 113.43 129.363C113.336 129.409 113.325 129.471 113.395 129.548L125.315 142.61ZM210.44 199.645L153.437 137.16C153.362 137.077 153.302 137.087 153.257 137.19C149.796 145.09 146.1 153.01 142.168 160.95C142.138 161.008 142.146 161.063 142.191 161.113C159.692 180.294 176.384 198.593 192.269 216.008C192.47 216.228 192.548 216.488 192.503 216.788C191.641 222.456 192.736 227.539 195.788 232.038C203.845 243.91 221.337 244.108 229.654 232.408C236.042 223.418 234.262 210.815 225.453 204.063C221.254 200.843 216.402 199.431 210.898 199.828C210.716 199.841 210.564 199.78 210.44 199.645Z" fill="#9E9EA0"/>
<path d="M183.833 69.6851C183.971 70.1551 184.453 70.0076 184.755 69.8276C198.959 61.3643 213.158 52.9059 227.353 44.4526C227.378 44.4371 227.407 44.4269 227.437 44.4226C227.467 44.4184 227.497 44.4201 227.526 44.4278C227.556 44.4355 227.583 44.4489 227.607 44.4674C227.632 44.4858 227.652 44.5088 227.667 44.5351C228.424 45.8401 228.167 47.5151 227.662 48.8251C226.931 50.7118 225.906 52.5859 224.585 54.4476C221.176 59.2601 217.32 63.5901 213.536 67.9726C209.293 72.8876 204.608 77.3901 199.593 81.4451C193.142 86.6651 185.889 91.3351 178.022 93.6826C177.78 93.7531 177.56 93.8849 177.385 94.0651C173.774 97.7584 170.104 101.494 166.376 105.273C166.046 105.61 165.754 106.098 165.542 106.52C164.523 108.543 163.567 110.608 162.675 112.715C160.115 118.763 157.481 124.937 154.77 131.235C149.891 142.57 145.01 153.073 140.127 162.745C134.398 174.09 128.069 185.238 120.711 195.605C117.255 200.475 113.436 205.223 109.215 209.453C105.234 213.446 100.911 217.227 96.2457 220.795C86.8567 227.977 76.8542 234.191 66.2381 239.438C63.5974 240.743 60.965 241.909 58.341 242.938C56.5403 243.643 54.4948 244.413 52.5817 244.565C51.4578 244.655 50.3489 243.233 49.8419 242.383C48.4017 239.958 47.5159 237.273 47.1846 234.328C47.0697 233.325 47.0297 232.013 47.9288 231.285C51.1939 228.648 54.6189 226.042 58.2036 223.465C65.2041 218.433 72.2421 213.403 78.958 207.975C84.2543 203.693 89.2119 199.139 93.8306 194.313C101.758 186.028 108.479 176.148 114.283 166.143C121.089 154.404 126.997 142.339 132.005 129.948C132.976 127.543 133.854 125.104 134.64 122.633C134.85 121.97 135.304 120.438 134.942 119.815C134.918 119.773 134.887 119.736 134.848 119.707C134.81 119.677 134.767 119.655 134.72 119.643C134.444 119.563 134.177 119.55 133.921 119.605C132.938 119.815 131.854 120.143 130.666 120.588C127.972 121.596 125.101 122.791 122.053 124.173C105.219 131.808 88.6358 141.073 73.7431 151.8C65.3199 157.868 57.7482 164.917 51.0283 172.945C43.9503 181.4 37.6491 190.93 31.2829 200.235C29.3116 203.117 27.1853 206.014 24.9043 208.928C24.0052 210.075 20.716 209.6 19.4247 209.323C17.5191 208.913 12.0371 207.385 12.3743 204.643C12.684 202.12 13.7479 199.385 14.6994 197.053C16.5409 192.543 18.6705 188.033 21.0881 183.525C28.0961 170.45 36.2805 158.335 46.3379 147.888C47.5101 146.669 48.7239 145.503 49.9793 144.39C57.0498 138.108 65.1817 132.64 73.331 127.725C94.5025 114.958 117.317 104.34 139.882 93.8976C142.496 92.6876 145.142 91.3993 147.819 90.0326C148.768 89.5476 149.485 89.0226 150.277 88.2101C153.777 84.6168 157.269 81.0693 160.754 77.5676C160.905 77.4159 161.008 77.2359 161.061 77.0276C161.304 76.0559 161.598 75.0976 161.943 74.1526C165.045 65.6826 170.434 57.8501 176.418 50.9676C179.46 47.4659 182.319 44.5076 184.995 42.0926C187.226 40.0809 189.447 38.0976 191.658 36.1426C194.982 33.2076 198.381 30.2976 202.168 28.0026C204.176 26.7826 207.24 25.3151 209.381 26.5201C209.403 26.5325 209.423 26.5494 209.438 26.5696C209.454 26.5898 209.465 26.6129 209.472 26.6377C209.478 26.6624 209.48 26.6883 209.476 26.7136C209.473 26.7389 209.464 26.7632 209.45 26.7851L183.893 69.2151C183.852 69.2844 183.825 69.3619 183.815 69.4428C183.804 69.5237 183.811 69.6062 183.833 69.6851Z" fill="white"/>
<path d="M218.951 220.267C218.494 221.762 218.022 223.295 217.495 224.785C217.263 225.445 216.646 225.497 216.039 225.635C214.689 225.943 213.392 226.228 212.15 226.49C211.942 226.534 211.725 226.523 211.522 226.458C211.319 226.393 211.136 226.277 210.991 226.12C209.966 225.005 208.944 223.887 207.927 222.767C207.497 222.295 207.515 221.857 207.71 221.235C208.158 219.81 208.594 218.438 209.018 217.12C209.083 216.917 209.199 216.735 209.356 216.592C209.512 216.449 209.703 216.349 209.91 216.302C211.36 215.976 212.852 215.648 214.386 215.32C214.863 215.218 215.271 215.35 215.609 215.715C216.672 216.862 217.699 217.987 218.691 219.092C218.832 219.25 218.93 219.44 218.976 219.646C219.021 219.852 219.013 220.066 218.951 220.267ZM210.167 217.265C210.118 217.276 210.072 217.3 210.035 217.334C209.998 217.368 209.97 217.412 209.955 217.46L208.581 221.785C208.566 221.833 208.564 221.885 208.575 221.934C208.586 221.984 208.61 222.03 208.644 222.067L211.701 225.422C211.735 225.46 211.778 225.488 211.826 225.504C211.874 225.52 211.926 225.523 211.976 225.512L216.406 224.537C216.455 224.526 216.501 224.502 216.538 224.468C216.575 224.434 216.603 224.391 216.618 224.342L217.992 220.017C218.007 219.969 218.009 219.917 217.999 219.868C217.988 219.818 217.964 219.772 217.93 219.735L214.873 216.38C214.838 216.343 214.795 216.315 214.747 216.299C214.699 216.284 214.647 216.282 214.598 216.292L210.167 217.265Z" fill="#9E9EA0"/>
</svg>
