<svg width="383" height="383" viewBox="0 0 383 383" fill="none" xmlns="http://www.w3.org/2000/svg">
<g opacity="0.5">
<path d="M175.105 57.0742L244.773 16.3613L266.03 29.0386" stroke="white" stroke-linecap="round" stroke-linejoin="round"/>
<path d="M327.234 64.0439L354.12 79.9384V239.649L136.155 367.533L26.9235 305.066L26.8086 143.708L68.6321 119.311" stroke="white" stroke-linecap="round" stroke-linejoin="round"/>
<path d="M354.122 79.9385L136.156 206.482V367.533" stroke="white" stroke-linecap="round" stroke-linejoin="round"/>
<path d="M256.033 201.043L255.727 231.377" stroke="white" stroke-linecap="round" stroke-linejoin="round"/>
<path d="M41.4766 151.521L136.154 206.482" stroke="white" stroke-linecap="round" stroke-linejoin="round"/>
<path d="M190.312 298.288C190.312 298.288 158.447 308.858 174.265 260.677C174.265 260.677 189.585 225.173 193.415 205.41C193.415 205.41 226.889 206.329 228.536 240.684C229.655 249.676 228.361 258.803 224.787 267.129C221.213 275.455 215.487 282.68 208.198 288.062C208.198 288.062 234.166 246.276 202.53 231.224C204.13 243.407 202.119 255.792 196.747 266.843C196.747 266.843 197.015 258.915 191.04 256.732C191.04 256.732 187.21 268.797 185.295 274.886C185.218 274.886 178.937 292.849 190.312 298.288Z" stroke="white" stroke-linecap="round" stroke-linejoin="round"/>
<path fill-rule="evenodd" clip-rule="evenodd" d="M323.979 137.771L297.514 153.053L282.5 205.448L300.386 195.145L285.334 248.382L332.558 158.415L310.382 171.207L323.979 137.771Z" stroke="white" stroke-linecap="round" stroke-linejoin="round"/>
<path d="M164.27 45.8896V107.514" stroke="white" stroke-linecap="round" stroke-linejoin="round"/>
<path d="M129.453 107.514V45.8896" stroke="white" stroke-linecap="round" stroke-linejoin="round"/>
<path d="M146.88 57.8011C156.504 57.8011 164.306 52.4682 164.306 45.8898C164.306 39.3114 156.504 33.9785 146.88 33.9785C137.255 33.9785 129.453 39.3114 129.453 45.8898C129.453 52.4682 137.255 57.8011 146.88 57.8011Z" stroke="white" stroke-linecap="round" stroke-linejoin="round"/>
<path d="M164.268 107.553C164.268 114.14 156.608 119.464 146.88 119.464C137.151 119.464 129.453 114.14 129.453 107.553" stroke="white" stroke-linecap="round" stroke-linejoin="round"/>
<path d="M115.668 71.1299V132.716" stroke="white" stroke-linecap="round" stroke-linejoin="round"/>
<path d="M80.8516 132.716V71.1299" stroke="white" stroke-linecap="round" stroke-linejoin="round"/>
<path d="M98.278 83.0414C107.902 83.0414 115.705 77.7085 115.705 71.1301C115.705 64.5516 107.902 59.2188 98.278 59.2188C88.6536 59.2188 80.8516 64.5516 80.8516 71.1301C80.8516 77.7085 88.6536 83.0414 98.278 83.0414Z" stroke="white" stroke-linecap="round" stroke-linejoin="round"/>
<path d="M115.666 132.716C115.666 139.303 108.006 144.665 98.278 144.665C88.5498 144.665 80.8516 139.303 80.8516 132.716" stroke="white" stroke-linecap="round" stroke-linejoin="round"/>
<path d="M109.653 352.443V283.771L50.25 249.071V318.011" stroke="white" stroke-linecap="round" stroke-linejoin="round"/>
<path d="M109.653 301.006L50.25 266.307" stroke="white" stroke-linecap="round" stroke-linejoin="round"/>
<path d="M109.653 318.241L50.25 283.541" stroke="white" stroke-linecap="round" stroke-linejoin="round"/>
<path d="M109.653 335.476L50.25 300.776" stroke="white" stroke-linecap="round" stroke-linejoin="round"/>
<path d="M217.542 122.299C219.426 123.393 221.55 124.007 223.727 124.088C225.904 124.168 228.068 123.711 230.027 122.759L237.917 118.201C239.982 116.743 241.621 114.761 242.665 112.458C243.708 110.155 244.119 107.616 243.854 105.102C243.461 98.0674 241.414 91.2244 237.88 85.1288C234.347 79.0331 229.426 73.8566 223.516 70.0194C221.475 68.5362 219.076 67.6231 216.565 67.3741C214.055 67.125 211.523 67.549 209.23 68.6023L201.302 73.1983C199.443 74.4713 197.933 76.1899 196.909 78.1971C195.885 80.2043 195.381 82.436 195.442 84.6883" stroke="white" stroke-linecap="round" stroke-linejoin="round"/>
<path d="M178.59 135.78V102.038C178.392 100.166 178.695 98.2743 179.469 96.5579C180.243 94.8416 181.46 93.3621 182.995 92.2715L203.179 80.7815C204.887 79.9991 206.772 79.6827 208.642 79.8643C210.512 80.0459 212.301 80.7192 213.826 81.8156C218.205 84.6785 221.848 88.5309 224.463 93.0617C227.078 97.5925 228.59 102.675 228.878 107.898C229.077 109.77 228.774 111.662 227.999 113.378C227.225 115.094 226.009 116.574 224.474 117.664L212.026 125.707L211.835 134.631C211.835 140.913 204.443 146.121 195.328 146.121C186.212 146.121 178.782 141.066 178.782 134.631" stroke="white" stroke-linecap="round" stroke-linejoin="round"/>
<path d="M301.113 72.3941C302.997 73.4725 305.116 74.0746 307.285 74.148C309.454 74.2214 311.609 73.764 313.561 72.8153L321.451 68.2577C323.516 66.7998 325.155 64.8174 326.198 62.5148C327.242 60.2123 327.652 57.6731 327.387 55.1591C327.013 48.1382 324.987 41.3049 321.472 35.2152C317.958 29.1256 313.056 23.9516 307.165 20.1145C305.125 18.613 302.718 17.6889 300.197 17.4396C297.677 17.1902 295.135 17.6247 292.841 18.6975L284.798 23.2934C282.929 24.5595 281.409 26.2757 280.378 28.2837C279.347 30.2918 278.839 32.5271 278.899 34.7834" stroke="white" stroke-linecap="round" stroke-linejoin="round"/>
<path d="M221.297 68.5633L286.752 30.6846C288.461 29.8997 290.349 29.5854 292.221 29.7739C294.093 29.9624 295.88 30.647 297.399 31.757C301.779 34.6093 305.424 38.4541 308.039 42.9792C310.654 47.5043 312.166 52.5823 312.451 57.801C312.649 59.6733 312.346 61.5647 311.572 63.281C310.798 64.9974 309.581 66.4768 308.046 67.5675L243.856 105.101" stroke="white" stroke-linecap="round" stroke-linejoin="round"/>
<path d="M307.164 20.1142C307.164 20.1142 311.492 18.0843 314.824 16.2842C316.534 15.4994 318.422 15.185 320.293 15.3735C322.165 15.562 323.953 16.2466 325.471 17.3566C329.856 20.2127 333.505 24.0635 336.12 28.5957C338.736 33.1279 340.244 38.2136 340.523 43.4389V70.8617" stroke="white" stroke-linecap="round" stroke-linejoin="round"/>
</g>
<path d="M354.122 79.9385L136.156 206.482V367.533" stroke="white" stroke-linecap="round" stroke-linejoin="round"/>
</svg>
