<svg width="179" height="179" viewBox="0 0 179 179" fill="none" xmlns="http://www.w3.org/2000/svg">
<path d="M81.8438 26.6742L114.404 7.64648L124.338 13.5714" stroke="white" stroke-linecap="round" stroke-linejoin="round"/>
<path d="M152.939 29.9316L165.505 37.3601V112.003L63.6357 171.771L12.5849 142.576L12.5312 67.1636L32.078 55.7614" stroke="white" stroke-linecap="round" stroke-linejoin="round"/>
<path d="M165.502 37.3604L63.6328 96.502V171.771" stroke="white" stroke-linecap="round" stroke-linejoin="round"/>
<path d="M119.659 93.96L119.516 108.137" stroke="white" stroke-linecap="round" stroke-linejoin="round"/>
<path d="M19.3906 70.8154L63.6394 96.5019" stroke="white" stroke-linecap="round" stroke-linejoin="round"/>
<path d="M88.9495 139.408C88.9495 139.408 74.0568 144.349 81.4495 121.831C81.4495 121.831 88.6095 105.237 90.3995 96.001C90.3995 96.001 106.044 96.4306 106.814 112.487C107.337 116.689 106.732 120.955 105.062 124.846C103.391 128.737 100.715 132.114 97.3089 134.629C97.3089 134.629 109.445 115.1 94.6596 108.066C95.4074 113.76 94.4676 119.548 91.9568 124.713C91.9568 124.713 92.082 121.007 89.2896 119.987C89.2896 119.987 87.4996 125.625 86.6046 128.472C86.5688 128.472 83.6332 136.867 88.9495 139.408Z" stroke="white" stroke-linecap="round" stroke-linejoin="round"/>
<path fill-rule="evenodd" clip-rule="evenodd" d="M151.417 64.3896L139.048 71.5318L132.031 96.0189L140.391 91.2038L133.356 116.085L155.427 74.0377L145.062 80.0163L151.417 64.3896Z" stroke="white" stroke-linecap="round" stroke-linejoin="round"/>
<path d="M76.7734 21.4482V50.2494" stroke="white" stroke-linecap="round" stroke-linejoin="round"/>
<path d="M60.5078 50.2494V21.4482" stroke="white" stroke-linecap="round" stroke-linejoin="round"/>
<path d="M68.6523 27.0147C73.1504 27.0147 76.7968 24.5223 76.7968 21.4478C76.7968 18.3732 73.1504 15.8809 68.6523 15.8809C64.1542 15.8809 60.5078 18.3732 60.5078 21.4478C60.5078 24.5223 64.1542 27.0147 68.6523 27.0147Z" stroke="white" stroke-linecap="round" stroke-linejoin="round"/>
<path d="M76.7789 50.2666C76.7789 53.3454 73.1989 55.8335 68.6523 55.8335C64.1057 55.8335 60.5078 53.3454 60.5078 50.2666" stroke="white" stroke-linecap="round" stroke-linejoin="round"/>
<path d="M54.0625 33.2441V62.0273" stroke="white" stroke-linecap="round" stroke-linejoin="round"/>
<path d="M37.7891 62.0273V33.2441" stroke="white" stroke-linecap="round" stroke-linejoin="round"/>
<path d="M45.9335 38.8106C50.4316 38.8106 54.0781 36.3182 54.0781 33.2437C54.0781 30.1691 50.4316 27.6768 45.9335 27.6768C41.4355 27.6768 37.7891 30.1691 37.7891 33.2437C37.7891 36.3182 41.4355 38.8106 45.9335 38.8106Z" stroke="white" stroke-linecap="round" stroke-linejoin="round"/>
<path d="M54.0602 62.0273C54.0602 65.1061 50.4801 67.6121 45.9335 67.6121C41.3869 67.6121 37.7891 65.1061 37.7891 62.0273" stroke="white" stroke-linecap="round" stroke-linejoin="round"/>
<path d="M51.2472 164.719V132.625L23.4844 116.407V148.627" stroke="white" stroke-linecap="round" stroke-linejoin="round"/>
<path d="M51.2472 140.679L23.4844 124.462" stroke="white" stroke-linecap="round" stroke-linejoin="round"/>
<path d="M51.2472 148.735L23.4844 132.518" stroke="white" stroke-linecap="round" stroke-linejoin="round"/>
<path d="M51.2472 156.79L23.4844 140.572" stroke="white" stroke-linecap="round" stroke-linejoin="round"/>
<path d="M101.667 57.1583C102.547 57.6697 103.54 57.9568 104.557 57.9942C105.575 58.0317 106.586 57.8184 107.502 57.3731L111.189 55.243C112.155 54.5617 112.921 53.6352 113.408 52.559C113.896 51.4829 114.088 50.2962 113.964 49.1212C113.78 45.8334 112.824 42.6352 111.172 39.7864C109.521 36.9375 107.221 34.5182 104.459 32.7248C103.505 32.0316 102.384 31.6049 101.21 31.4885C100.037 31.3721 98.8537 31.5702 97.7822 32.0625L94.077 34.2105C93.2081 34.8055 92.5021 35.6087 92.0237 36.5468C91.5453 37.4848 91.3097 38.5279 91.3383 39.5805" stroke="white" stroke-linecap="round" stroke-linejoin="round"/>
<path d="M83.4651 63.4591V47.6892C83.3724 46.8142 83.5141 45.9302 83.8759 45.128C84.2376 44.3259 84.8064 43.6344 85.5237 43.1247L94.957 37.7547C95.7553 37.389 96.6362 37.2412 97.5102 37.326C98.3841 37.4109 99.2201 37.7256 99.9332 38.238C101.979 39.576 103.682 41.3765 104.904 43.494C106.126 45.6115 106.833 47.9868 106.968 50.4279C107.061 51.303 106.919 52.1869 106.557 52.9891C106.195 53.7912 105.627 54.4827 104.909 54.9924L99.0919 58.7514L99.0024 62.9221C99.0024 65.8577 95.5477 68.2921 91.2875 68.2921C87.0273 68.2921 83.5547 65.9293 83.5547 62.9221" stroke="white" stroke-linecap="round" stroke-linejoin="round"/>
<path d="M140.728 33.8339C141.608 34.3379 142.599 34.6193 143.612 34.6536C144.626 34.6879 145.633 34.4741 146.546 34.0307L150.233 31.9007C151.198 31.2193 151.964 30.2928 152.452 29.2167C152.94 28.1406 153.131 26.9538 153.007 25.7789C152.833 22.4976 151.885 19.3039 150.243 16.4578C148.601 13.6118 146.31 11.1937 143.556 9.40035C142.603 8.69858 141.478 8.26672 140.3 8.15017C139.122 8.03362 137.934 8.2367 136.862 8.73806L133.103 10.8861C132.229 11.4778 131.519 12.2798 131.037 13.2183C130.555 14.1568 130.318 15.2015 130.346 16.2561" stroke="white" stroke-linecap="round" stroke-linejoin="round"/>
<path d="M103.422 32.0442L134.013 14.3411C134.812 13.9743 135.694 13.8274 136.569 13.9155C137.444 14.0036 138.279 14.3236 138.989 14.8423C141.036 16.1754 142.74 17.9723 143.962 20.0871C145.184 22.202 145.891 24.5753 146.024 27.0143C146.117 27.8893 145.975 28.7733 145.613 29.5755C145.251 30.3776 144.683 31.0691 143.965 31.5788L113.965 49.1208" stroke="white" stroke-linecap="round" stroke-linejoin="round"/>
<path d="M143.555 9.40065C143.555 9.40065 145.577 8.45195 147.135 7.61065C147.934 7.24386 148.816 7.09692 149.691 7.18503C150.566 7.27313 151.401 7.59308 152.111 8.11185C154.16 9.44669 155.865 11.2464 157.088 13.3646C158.31 15.4828 159.015 17.8596 159.146 20.3017V33.1181" stroke="white" stroke-linecap="round" stroke-linejoin="round"/>
</svg>
