<svg width="445" height="445" viewBox="0 0 445 445" fill="none" xmlns="http://www.w3.org/2000/svg">
<g clip-path="url(#clip0_2110_73106)">
<path d="M282.754 115.859L193.761 61.8139L102.477 111.861L191.469 165.907L282.754 115.859Z" stroke="black" stroke-linecap="round" stroke-linejoin="round"/>
<path d="M255.18 204.583L346.464 154.536" stroke="black" stroke-linecap="round" stroke-linejoin="round"/>
<path d="M329.641 324.722L299.203 341.41" stroke="black" stroke-linecap="round" stroke-linejoin="round"/>
<path d="M329.899 313.255L299.461 329.942" stroke="black" stroke-linecap="round" stroke-linejoin="round"/>
<path d="M330.157 301.789L299.719 318.477" stroke="black" stroke-linecap="round" stroke-linejoin="round"/>
<path d="M330.407 290.322L299.969 307.01" stroke="black" stroke-linecap="round" stroke-linejoin="round"/>
<path d="M203.391 270.283L238.449 291.546" stroke="black" stroke-linecap="round" stroke-linejoin="round"/>
<path d="M203.102 283.261L238.176 304.553" stroke="black" stroke-linecap="round" stroke-linejoin="round"/>
<path d="M202.836 296.269L237.881 317.576" stroke="black" stroke-linecap="round" stroke-linejoin="round"/>
<path d="M202.531 309.292L237.59 330.555" stroke="black" stroke-linecap="round" stroke-linejoin="round"/>
<path d="M202.25 322.271L237.295 343.579" stroke="black" stroke-linecap="round" stroke-linejoin="round"/>
<path d="M201.945 335.293L237.004 356.556" stroke="black" stroke-linecap="round" stroke-linejoin="round"/>
<path d="M154.516 240.596L189.574 261.859" stroke="black" stroke-linecap="round" stroke-linejoin="round"/>
<path d="M154.242 253.602L189.272 274.88" stroke="black" stroke-linecap="round" stroke-linejoin="round"/>
<path d="M153.93 266.597L189.004 287.888" stroke="black" stroke-linecap="round" stroke-linejoin="round"/>
<path d="M153.664 279.604L188.722 300.868" stroke="black" stroke-linecap="round" stroke-linejoin="round"/>
<path d="M153.344 292.598L188.418 313.889" stroke="black" stroke-linecap="round" stroke-linejoin="round"/>
<path d="M153.078 305.604L188.152 326.896" stroke="black" stroke-linecap="round" stroke-linejoin="round"/>
<path d="M346.462 154.535L193.763 61.8138L102.478 111.861L98.534 290.464L251.234 383.186L342.518 333.138L346.462 154.535Z" stroke="black" stroke-linecap="round" stroke-linejoin="round"/>
<path d="M251.503 370.589L255.176 204.583L102.477 111.861" stroke="black" stroke-linecap="round" stroke-linejoin="round"/>
</g>
<path fill-rule="evenodd" clip-rule="evenodd" d="M132.628 148.123L121.499 157.501L118.703 183.739L126.224 177.406L123.483 204.038L138.298 157.309L128.974 165.171L132.628 148.123Z" stroke="black" stroke-linecap="round" stroke-linejoin="round"/>
<defs>
<clipPath id="clip0_2110_73106">
<rect width="327.783" height="327.783" fill="white" transform="matrix(0.480745 0.87686 0.87686 -0.480745 0 157.58)"/>
</clipPath>
</defs>
</svg>
