<svg width="341" height="341" viewBox="0 0 341 341" fill="none" xmlns="http://www.w3.org/2000/svg">
<path d="M57.9688 101.141V273.584C57.9688 284.258 65.2321 294.931 79.3836 303.115C107.789 319.517 153.722 319.585 181.956 303.115C196.142 294.931 203.132 284.189 203.03 273.414V101.141" stroke="black" stroke-linecap="round" stroke-linejoin="round"/>
<path d="M181.646 71.6104C210.085 88.0125 210.221 114.542 181.987 130.842C153.752 147.142 107.785 147.074 79.3797 130.842C50.9744 114.61 50.8039 87.9102 79.0387 71.6104" stroke="black" stroke-linecap="round" stroke-linejoin="round"/>
<path d="M83.7852 111.064C72.0889 99.2656 74.9192 84.057 92.3443 74.0657C113.316 62.0625 147.348 62.1307 168.421 74.0657C189.495 86.0007 189.632 105.642 168.66 117.646C154.099 126.034 133.128 128.523 114.646 125.182" stroke="black" stroke-linecap="round" stroke-linejoin="round"/>
<path d="M126.956 99.1975C133.375 99.9404 139.869 98.7531 145.609 95.7875C153.964 91.0135 153.895 83.2387 145.609 78.4306C140.912 76.0676 135.727 74.8369 130.469 74.8369C125.211 74.8369 120.026 76.0676 115.328 78.4306C113.738 79.1545 112.347 80.2519 111.272 81.6293C110.198 83.0068 109.472 84.6234 109.156 86.3418V99.6749C109.351 101.537 110.03 103.316 111.124 104.836C112.219 106.355 113.692 107.562 115.397 108.336C120.083 110.715 125.264 111.954 130.52 111.954C135.775 111.954 140.957 110.715 145.643 108.336C147.354 107.574 148.831 106.37 149.922 104.848C151.013 103.325 151.678 101.54 151.849 99.6749V99.6749V87.7399" stroke="black" stroke-linecap="round" stroke-linejoin="round"/>
<path d="M145.164 291.215C156.713 290.033 167.966 286.836 178.412 281.769V153.689C167.968 158.768 156.715 161.976 145.164 163.169V291.215Z" stroke="black" stroke-linecap="round" stroke-linejoin="round"/>
<path d="M178.412 249.032C167.966 254.099 156.713 257.296 145.164 258.478" stroke="black" stroke-linecap="round" stroke-linejoin="round"/>
<path d="M145.164 229.254C156.716 228.088 167.972 224.891 178.412 219.809" stroke="black" stroke-linecap="round" stroke-linejoin="round"/>
<path d="M145.164 196.621C156.713 195.438 167.966 192.241 178.412 187.175" stroke="black" stroke-linecap="round" stroke-linejoin="round"/>
<path fill-rule="evenodd" clip-rule="evenodd" d="M277.368 27.2803L242.245 47.5357L222.297 117.1L246.03 103.426L226.048 174.081L288.758 54.6626L259.329 71.6444L277.368 27.2803Z" stroke="black" stroke-linecap="round" stroke-linejoin="round"/>
</svg>
