<svg width="75" height="74" viewBox="0 0 75 74" fill="none" xmlns="http://www.w3.org/2000/svg">
<path d="M36.4619 12.0917L28.021 7.1855L36.4766 2.2793L44.9175 7.1855L36.4619 12.0917Z" stroke="white" stroke-linecap="round" stroke-linejoin="round"/>
<path d="M44.9175 17.5159L36.4619 22.4221L28.021 17.5159" stroke="white" stroke-linecap="round" stroke-linejoin="round"/>
<path d="M36.4619 32.7598L28.021 27.8462" stroke="white" stroke-linecap="round" stroke-linejoin="round"/>
<path d="M43.2985 39.1165L36.4619 43.0903L28.021 38.1841" stroke="white" stroke-linecap="round" stroke-linejoin="round"/>
<path d="M28.021 48.5144L36.4619 53.4206L44.9175 48.5144" stroke="white" stroke-linecap="round" stroke-linejoin="round"/>
<path d="M44.9175 17.5159V7.18555" stroke="white" stroke-linecap="round" stroke-linejoin="round"/>
<path d="M51.2904 63.1072L46.6763 52.54" stroke="white" stroke-linecap="round" stroke-linejoin="round"/>
<path d="M45.6236 50.1424L44.8877 48.5144V42.3872" stroke="white" stroke-linecap="round" stroke-linejoin="round"/>
<path d="M28.021 7.18555V48.5145L21.6406 63.1073" stroke="white" stroke-linecap="round" stroke-linejoin="round"/>
<path d="M36.4619 12.0918V60.6284" stroke="white" stroke-linecap="round" stroke-linejoin="round"/>
<path d="M36.4546 63.877V71.721" stroke="white" stroke-linecap="round" stroke-linejoin="round"/>
<path d="M63.3447 38.5467L54.8891 43.4603L9.59375 17.1533L18.042 12.2397" stroke="white" stroke-linecap="round" stroke-linejoin="round"/>
<path d="M63.3447 38.5467L44.9175 17.5159V28.0313" stroke="white" stroke-linecap="round" stroke-linejoin="round"/>
<path d="M54.8891 43.4602L36.4619 22.4294" stroke="white" stroke-linecap="round" stroke-linejoin="round"/>
<path d="M25.46 12.3877L18.042 12.2397" stroke="white" stroke-linecap="round" stroke-linejoin="round"/>
<path d="M9.59375 17.1533L28.021 17.5159" stroke="white" stroke-linecap="round" stroke-linejoin="round"/>
<path d="M44.4316 34.3509V31.5241L52.7474 26.4551" stroke="white" stroke-linecap="round" stroke-linejoin="round"/>
<path d="M24.0323 14.874L19.9922 17.3382V20.4462" stroke="white" stroke-linecap="round" stroke-linejoin="round"/>
<path d="M36.4766 2.2793V7.1855" stroke="white" stroke-linecap="round" stroke-linejoin="round"/>
<path d="M51.2903 63.1073L42.6948 57.4907" stroke="white" stroke-linecap="round" stroke-linejoin="round"/>
<path d="M40.6493 56.1512L36.4619 53.4207" stroke="white" stroke-linecap="round" stroke-linejoin="round"/>
<path d="M36.4546 71.7209L41.0467 59.1409" stroke="white" stroke-linecap="round" stroke-linejoin="round"/>
<path d="M43.21 53.1912L44.9173 48.5144" stroke="white" stroke-linecap="round" stroke-linejoin="round"/>
<path d="M21.6406 63.1073L36.4619 53.4207" stroke="white" stroke-linecap="round" stroke-linejoin="round"/>
<path d="M36.4543 71.721L34.2466 65.6604" stroke="white" stroke-linecap="round" stroke-linejoin="round"/>
<path d="M33.3269 63.122L28.021 48.5144" stroke="white" stroke-linecap="round" stroke-linejoin="round"/>
<path d="M36.4619 53.4207L28.021 38.1841" stroke="white" stroke-linecap="round" stroke-linejoin="round"/>
<path d="M36.4619 42.7647L28.021 27.5281" stroke="white" stroke-linecap="round" stroke-linejoin="round"/>
<path d="M36.4619 32.9004L28.021 17.6638" stroke="white" stroke-linecap="round" stroke-linejoin="round"/>
<path d="M36.4619 22.4962L28.021 7.2522" stroke="white" stroke-linecap="round" stroke-linejoin="round"/>
<path d="M36.4766 22.4962L44.9175 7.2522" stroke="white" stroke-linecap="round" stroke-linejoin="round"/>
<path d="M36.4619 53.4208L40.5757 46.0208" stroke="white" stroke-linecap="round" stroke-linejoin="round"/>
<path d="M36.4619 43.0904L38.9272 38.6504" stroke="white" stroke-linecap="round" stroke-linejoin="round"/>
<path d="M36.4619 32.7452L38.9272 28.3052" stroke="white" stroke-linecap="round" stroke-linejoin="round"/>
<path d="M20.3306 71.3952C32.922 66.1264 42.6434 55.3594 49.8995 44.0892C50.7384 45.88 51.2536 47.36 52.9462 48.3738C53.5834 48.7 54.2953 48.85 55.0092 48.8084C55.723 48.7668 56.413 48.5351 57.0084 48.137C58.187 47.3237 59.1599 46.244 59.849 44.9846C61.3432 42.5446 62.4296 39.8748 63.065 37.0814C66.2658 36.4026 69.2539 34.9498 71.7708 32.8486" stroke="white" stroke-linecap="round" stroke-linejoin="round"/>
<path d="M3.24268 32.56C6.28673 29.0391 9.07797 25.305 11.5953 21.386C12.4269 23.1398 12.942 24.6716 14.6052 25.6706C15.2421 25.9975 15.9542 26.1479 16.6682 26.1063C17.3822 26.0647 18.0722 25.8326 18.6674 25.4338L18.7851 25.3598" stroke="white" stroke-linecap="round" stroke-linejoin="round"/>
</svg>
