<svg width="63" height="63" viewBox="0 0 63 63" fill="none" xmlns="http://www.w3.org/2000/svg">
<path d="M49.1094 14.6837C49.0837 14.7248 49.092 14.733 49.1342 14.7085C52.9402 12.5028 56.7451 10.2976 60.5488 8.09292C60.6445 8.03794 60.734 8.13917 60.787 8.2042C61.3921 8.94835 60.734 10.1209 60.3099 10.7853C59.9166 11.4016 59.35 12.1363 58.6102 12.9895C57.8291 13.8906 57.2478 14.5531 56.8665 14.9773C55.5585 16.4321 54.1227 17.7476 52.559 18.924C51.4085 19.7901 50.2409 20.5124 49.0564 21.0907C48.4299 21.3964 47.784 21.6474 47.1185 21.8436C47.0368 21.8673 46.9668 21.9079 46.9085 21.9656C45.9057 22.9529 44.9087 23.9404 43.9174 24.9281C43.8506 24.9945 43.8045 25.0736 43.7597 25.1567C43.5046 25.634 43.2255 26.2211 42.9226 26.9179C41.9891 29.0618 41.1043 31.0732 40.2681 32.9522C40.265 32.959 40.264 32.9666 40.2653 32.9739C40.2665 32.9813 40.2698 32.9882 40.275 32.9937L56.017 49.7806C56.0316 49.7963 56.0498 49.8037 56.0713 49.8028C57.489 49.7245 58.7454 50.0457 59.8404 50.7661C63.4773 53.1581 63.3679 58.3437 59.6125 60.5768C57.0902 62.0772 53.7287 61.4906 51.8975 59.242C50.8029 57.8981 50.3889 56.3607 50.6556 54.6297C50.6593 54.606 50.6528 54.5852 50.6363 54.5673L36.9355 39.9565C36.9185 39.9387 36.9043 39.9407 36.8928 39.9626C35.2606 43.1249 33.4493 46.2476 31.3655 49.1049C30.7257 49.9822 30.0451 50.8276 29.3237 51.641C28.0584 53.067 26.5955 54.3649 25.072 55.53C22.2064 57.7227 19.136 59.5871 15.861 61.1232C15.163 61.4508 14.4548 61.744 13.7366 62.0028C13.329 62.1496 12.8788 62.2897 12.4527 62.3386C11.8193 62.411 11.3712 61.7044 11.1337 61.201C10.8439 60.5855 10.2243 58.8438 10.8631 58.339C12.3432 57.1712 13.877 56.0985 15.4397 55.0125C18.1562 53.1239 20.7419 51.1637 23.0667 48.8856C24.5839 47.398 25.905 45.7864 27.1572 43.9769C27.802 43.0446 28.417 42.0931 29.0022 41.1224C30.1936 39.1447 31.2896 37.118 32.29 35.0425C32.2983 35.025 32.2958 35.0092 32.2825 34.9949L28.8659 31.3506C28.8507 31.3349 28.8335 31.3318 28.8142 31.3412C26.7536 32.3289 24.6177 33.4793 22.4065 34.7924C20.2471 36.0742 18.351 37.3589 16.7181 38.6466C14.6763 40.2569 12.896 42.0777 11.2796 44.0829C9.89247 45.8045 8.57485 47.699 7.28131 49.5507C6.55022 50.5974 5.78562 51.6294 4.98751 52.6466C4.46363 53.3137 2.78734 52.8417 2.11201 52.5675C1.72879 52.4115 1.42221 52.2079 1.19228 51.9568C0.962353 51.7047 0.972679 51.3688 1.0484 51.0571C1.12643 50.7344 1.21523 50.4323 1.31482 50.1507C1.65077 49.2036 2.11017 48.1547 2.69303 47.0038C4.33604 43.76 6.24708 40.8198 8.42615 38.1833C8.94934 37.5496 9.55652 36.8776 10.2477 36.1674C11.1766 35.2128 12.2436 34.3015 13.4488 33.4335C14.961 32.3448 16.5249 31.3311 18.1404 30.3926C20.2708 29.155 22.4393 27.9892 24.6459 26.8951C24.6492 26.8934 24.6521 26.8909 24.6544 26.888C24.6566 26.885 24.6581 26.8816 24.6588 26.8779C24.6594 26.8743 24.6592 26.8706 24.6582 26.867C24.6572 26.8635 24.6553 26.8603 24.6528 26.8575L15.3764 16.965C15.3742 16.9628 15.3716 16.9609 15.3687 16.9597C15.3658 16.9584 15.3627 16.9576 15.3596 16.9575C15.3565 16.9574 15.3534 16.9579 15.3504 16.9589C15.3475 16.96 15.3449 16.9616 15.3427 16.9637L14.0415 18.1188C14.0083 18.1482 13.9664 18.1667 13.9218 18.1715C13.8773 18.1763 13.8325 18.1672 13.7937 18.1456L4.35899 12.9245C4.26491 12.8727 4.22865 12.7951 4.25022 12.6919L4.82643 9.95195C4.832 9.92519 4.84296 9.89977 4.85866 9.87715C4.87436 9.85453 4.89449 9.83516 4.91791 9.82014C4.94132 9.80513 4.96756 9.79477 4.9951 9.78966C5.02264 9.78455 5.05094 9.7848 5.07839 9.79038C7.54566 10.2851 9.97325 10.7705 12.3611 11.2465C12.9683 11.3672 13.6319 11.0776 13.939 10.5419C14.0289 10.385 14.0991 10.1817 14.1496 9.93183C14.2515 9.4268 14.349 8.95282 14.4422 8.50991C14.5696 7.90386 14.2377 7.25826 13.6808 6.96798C13.5381 6.89379 13.3006 6.82384 12.9683 6.75814C10.6998 6.31165 8.37956 5.84818 6.00775 5.36772C5.95267 5.35659 5.90437 5.32466 5.8734 5.27893C5.84244 5.23319 5.83134 5.17738 5.84253 5.1237L6.42492 2.35895C6.43517 2.311 6.46065 2.26743 6.49774 2.23445C6.53482 2.20147 6.58161 2.18075 6.63145 2.17526L17.4017 1.00138C17.4467 0.996311 17.4922 1.00527 17.5315 1.02696C17.5709 1.04866 17.6021 1.08196 17.6206 1.12206C19.0929 4.28189 20.5654 7.44106 22.0382 10.5996C22.1015 10.735 22.1931 10.8677 22.0485 10.9971C21.6194 11.3819 21.1905 11.7629 20.7619 12.1401C20.7559 12.1455 20.7523 12.153 20.752 12.1609C20.7516 12.1687 20.7544 12.1765 20.7598 12.1824L31.4564 23.5893C31.4752 23.609 31.4972 23.6132 31.5225 23.602C33.3082 22.7909 35.0944 21.9794 36.8811 21.1678C37.4938 20.8894 38.0805 20.6027 38.6414 20.3077C38.7855 20.2321 38.9087 20.1434 39.011 20.0415C39.9533 19.1021 40.9166 18.1487 41.901 17.1816C41.9616 17.1221 42.0038 17.052 42.0277 16.9711C42.4758 15.4318 43.2944 13.9348 44.2182 12.6114C45.5381 10.7218 47.0469 9.02634 48.7445 7.52508C49.3324 7.0053 49.9396 6.47612 50.5661 5.93757C51.4326 5.19297 52.2128 4.58402 52.9067 4.11072C53.5882 3.6468 55.1723 2.7089 55.9164 3.53685C55.9326 3.55493 55.9425 3.57759 55.9446 3.60157C55.9467 3.62555 55.9409 3.6496 55.9281 3.67026L49.1094 14.6837ZM15.1891 16.7351C15.2903 16.6459 15.4225 16.6171 15.5237 16.725C18.6546 20.0641 21.7828 23.3998 24.9082 26.7322C24.9187 26.7438 24.9311 26.746 24.9453 26.7389C27.0129 25.7131 29.0951 24.7192 31.192 23.7569C31.1959 23.7551 31.1994 23.7525 31.202 23.7492C31.2047 23.7459 31.2066 23.7421 31.2074 23.738C31.2083 23.7339 31.2082 23.7296 31.2071 23.7256C31.2059 23.7215 31.2039 23.7178 31.201 23.7147C27.6804 19.9591 24.161 16.2064 20.6428 12.4566C20.5085 12.3138 20.3268 12.171 20.5388 11.9806C20.9679 11.5949 21.395 11.215 21.8199 10.8409C21.8257 10.8361 21.8297 10.8295 21.8313 10.8222C21.8329 10.815 21.8321 10.8074 21.8289 10.8007C20.4025 7.74006 18.9752 4.67788 17.547 1.61413C17.4822 1.47514 17.4297 1.37234 17.3893 1.30575C17.3765 1.28474 17.3576 1.27558 17.3329 1.27826L6.73058 2.43404C6.70305 2.43716 6.68652 2.45191 6.68102 2.47828L6.13373 5.07677C6.1273 5.10582 6.139 5.12347 6.16883 5.12973C8.53193 5.60304 10.8216 6.0598 13.0378 6.50004C13.3747 6.56663 13.6182 6.63613 13.7682 6.70853C14.3135 6.97267 14.6811 7.50966 14.7375 8.10297C14.755 8.28979 14.7228 8.5651 14.6412 8.92891C14.553 9.32177 14.4647 9.73049 14.3761 10.1551C14.2198 10.9066 13.5535 11.4945 12.7797 11.5375C12.5906 11.5482 12.3366 11.5214 12.0176 11.457C9.70086 10.9882 7.40133 10.5269 5.119 10.0733C5.0956 10.0688 5.08137 10.078 5.07632 10.1008L4.53523 12.6738C4.53018 12.6979 4.53867 12.716 4.5607 12.7281L13.8639 17.8761C13.8717 17.8804 13.8807 17.8822 13.8896 17.8812C13.8985 17.8803 13.9069 17.8766 13.9135 17.8708C14.3321 17.498 14.7573 17.1195 15.1891 16.7351ZM48.5415 15.1784C48.5352 15.1572 48.5334 15.1351 48.5362 15.1134C48.5391 15.0917 48.5465 15.071 48.558 15.0524L55.6025 3.67428C55.6062 3.66842 55.6086 3.6619 55.6096 3.65511C55.6106 3.64831 55.6102 3.64139 55.6084 3.63475C55.6066 3.62812 55.6035 3.6219 55.5992 3.61648C55.5948 3.61106 55.5894 3.60655 55.5833 3.60322C54.9933 3.28009 54.1486 3.67361 53.5951 4.00077C52.5515 4.6162 51.6145 5.39655 50.6983 6.18361C50.0888 6.70786 49.4766 7.23971 48.8616 7.77917C48.1241 8.42678 47.336 9.22009 46.4976 10.1591C44.8481 12.0047 43.3625 14.1051 42.5075 16.3764C42.4125 16.6298 42.3315 16.8868 42.2645 17.1474C42.2498 17.2033 42.2216 17.2515 42.1798 17.2922C41.2193 18.2312 40.2566 19.1825 39.2919 20.1461C39.0737 20.364 38.8761 20.5048 38.6145 20.6348C37.8765 21.0013 37.1473 21.3468 36.4267 21.6713C30.2069 24.4716 23.9182 27.3188 18.0825 30.7425C15.8362 32.0605 13.5948 33.5267 11.6459 35.2114C11.2998 35.51 10.9653 35.8226 10.6422 36.1493C7.86991 38.9509 5.61397 42.1997 3.68228 45.7059C3.01589 46.9149 2.42891 48.1241 1.92131 49.3335C1.65903 49.959 1.36576 50.6924 1.2804 51.3688C1.18746 52.1043 2.69854 52.5139 3.2238 52.6238C3.57971 52.6982 4.48635 52.8256 4.73418 52.5179C5.36293 51.7367 5.949 50.9597 6.49239 50.1869C8.24716 47.6917 9.98403 45.1361 11.935 42.8688C13.7873 40.7159 15.8743 38.8258 18.1961 37.1985C22.3012 34.3218 26.8722 31.8373 31.5121 29.7899C32.3525 29.4194 33.1439 29.0989 33.8865 28.8285C34.2137 28.7092 34.5127 28.6214 34.7835 28.565C34.8542 28.5503 34.9276 28.5536 35.0038 28.5751C35.0166 28.5785 35.0287 28.5844 35.0392 28.5923C35.0497 28.6002 35.0585 28.6101 35.065 28.6214C35.1649 28.7883 35.0396 29.1992 34.9818 29.3769C34.7651 30.0397 34.523 30.6936 34.2555 31.3385C32.875 34.6615 31.2466 37.8968 29.3705 41.0446C27.7706 43.7276 25.9181 46.377 23.7331 48.5987C22.4599 49.893 21.0934 51.1143 19.6335 52.2625C17.7824 53.7179 15.8424 55.0668 13.9128 56.4163C12.9247 57.1073 11.9807 57.8063 11.0807 58.5133C10.8328 58.7084 10.8439 59.0604 10.8755 59.3292C10.9669 60.1189 11.211 60.8389 11.608 61.4892C11.7477 61.7172 12.0534 62.0986 12.3632 62.0745C12.8905 62.0336 13.4543 61.8271 13.9507 61.6381C14.674 61.3623 15.3996 61.0495 16.1274 60.6995C19.0537 59.2925 21.8108 57.6261 24.3987 55.7003C25.6847 54.7434 26.8764 53.7295 27.9737 52.6587C29.1371 51.5244 30.1897 50.2513 31.1425 48.9453C33.1705 46.1651 34.915 43.1758 36.4942 40.1335C37.8403 37.54 39.1857 34.7234 40.5304 31.6838C41.2775 29.9948 42.0038 28.3393 42.7092 26.7174C42.9552 26.1525 43.2186 25.5987 43.4995 25.0561C43.558 24.9428 43.6386 24.8121 43.7294 24.7216C44.757 23.7084 45.7685 22.7066 46.764 21.7162C46.8123 21.6679 46.8727 21.6325 46.9395 21.6136C49.108 20.9841 51.1072 19.7318 52.8854 18.332C54.2677 17.2446 55.5592 16.0372 56.7288 14.7192C57.7717 13.544 58.8346 12.3828 59.7743 11.0923C60.1383 10.5931 60.421 10.0905 60.6225 9.58456C60.7615 9.23327 60.8324 8.7841 60.6238 8.43415C60.6196 8.4271 60.614 8.42092 60.6073 8.41598C60.6007 8.41104 60.5931 8.40744 60.585 8.40538C60.5769 8.40332 60.5685 8.40285 60.5603 8.40399C60.5521 8.40513 60.5442 8.40786 60.5371 8.41203C56.6246 10.6789 52.7107 12.9471 48.7955 15.2166C48.7122 15.2649 48.5793 15.3044 48.5415 15.1784ZM32.4119 34.7341C32.4139 34.7362 32.4164 34.7379 32.4192 34.7388C32.4221 34.7398 32.4251 34.74 32.428 34.7396C32.4309 34.7391 32.4337 34.7379 32.4361 34.7361C32.4384 34.7344 32.4403 34.7321 32.4415 34.7294C33.2655 33.0125 34.0545 31.2614 34.6644 29.464C34.7296 29.2719 34.7819 29.0752 34.8214 28.8741C34.8226 28.8676 34.8221 28.8609 34.8199 28.8547C34.8178 28.8484 34.8139 28.8428 34.8089 28.8385C34.8038 28.8341 34.7977 28.831 34.7911 28.8296C34.7844 28.8282 34.7776 28.8286 34.7711 28.8305C34.1694 29.0066 33.5655 29.2202 32.9592 29.4714C31.6292 30.0216 30.3547 30.5917 29.1357 31.1816C29.11 31.1941 29.1068 31.2107 29.1261 31.2312L32.4119 34.7341ZM55.8758 50.0287L40.1634 33.2726C40.1428 33.2503 40.1263 33.2529 40.1139 33.2807C39.1597 35.3991 38.1409 37.523 37.0573 39.6522C37.0491 39.6678 37.0511 39.6823 37.0635 39.6958C41.8875 44.8395 46.4886 49.7464 50.8669 54.4165C50.9225 54.4755 50.944 54.5452 50.9316 54.6256C50.6939 56.1457 50.9957 57.5088 51.8369 58.7151C54.0577 61.8989 58.8794 61.9518 61.1718 58.8143C62.9328 56.4036 62.4419 53.024 60.0139 51.2133C58.8564 50.3498 57.5191 49.9713 56.0018 50.0776C55.9518 50.0812 55.9098 50.0649 55.8758 50.0287Z" stroke="white" stroke-width="0.7"/>
<path d="M48.5386 15.1786C48.5765 15.3046 48.7093 15.2651 48.7926 15.2168C52.7079 12.9473 56.6217 10.6791 60.5342 8.4122C60.5413 8.40804 60.5492 8.40531 60.5575 8.40417C60.5657 8.40303 60.5741 8.4035 60.5821 8.40556C60.5902 8.40762 60.5978 8.41122 60.6045 8.41616C60.6111 8.4211 60.6167 8.42727 60.621 8.43433C60.8296 8.78428 60.7586 9.23345 60.6196 9.58474C60.4181 10.0907 60.1354 10.5933 59.7715 11.0925C58.8318 12.383 57.7689 13.5441 56.7259 14.7194C55.5563 16.0374 54.2648 17.2448 52.8825 18.3322C51.1043 19.732 49.1052 20.9843 46.9367 21.6138C46.8699 21.6327 46.8094 21.668 46.7611 21.7164C45.7657 22.7068 44.7541 23.7086 43.7266 24.7218C43.6357 24.8123 43.5552 24.943 43.4966 25.0563C43.2158 25.5989 42.9523 26.1527 42.7063 26.7176C42.001 28.3395 41.2747 29.995 40.5275 31.6839C39.1828 34.7235 37.8374 37.5401 36.4913 40.1337C34.9121 43.176 33.1677 46.1653 31.1396 48.9455C30.1868 50.2514 29.1342 51.5245 27.9708 52.6589C26.8735 53.7297 25.6818 54.7436 24.3959 55.7005C21.8079 57.6263 19.0508 59.2927 16.1246 60.6997C15.3967 61.0496 14.6711 61.3625 13.9478 61.6383C13.4515 61.8273 12.8877 62.0338 12.3603 62.0747C12.0505 62.0988 11.7449 61.7174 11.6051 61.4894C11.2082 60.8391 10.964 60.1191 10.8727 59.3294C10.841 59.0606 10.83 58.7086 11.0778 58.5135C11.9778 57.8064 12.9218 57.1074 13.91 56.4165C15.8396 55.067 17.7795 53.7181 19.6307 52.2627C21.0906 51.1145 22.4571 49.8932 23.7302 48.5989C25.9152 46.3772 27.7677 43.7277 29.3676 41.0448C31.2438 37.897 32.8721 34.6616 34.2526 31.3387C34.5202 30.6937 34.7623 30.0399 34.9789 29.3771C35.0367 29.1994 35.162 28.7885 35.0622 28.6215C35.0556 28.6103 35.0469 28.6004 35.0363 28.5925C35.0258 28.5845 35.0138 28.5787 35.0009 28.5753C34.9247 28.5538 34.8513 28.5505 34.7806 28.5652C34.5099 28.6215 34.2108 28.7094 33.8836 28.8287C33.1411 29.0991 32.3496 29.4195 31.5093 29.79C26.8694 31.8375 22.2983 34.322 18.1933 37.1987C15.8715 38.826 13.7844 40.7161 11.9321 42.869C9.98117 45.1363 8.2443 47.6918 6.48953 50.1871C5.94614 50.9598 5.36007 51.7368 4.73132 52.5181C4.48349 52.8258 3.57685 52.6984 3.22094 52.624C2.69568 52.5141 1.18461 52.1044 1.27754 51.369C1.3629 50.6926 1.65617 49.9591 1.91846 49.3337C2.42605 48.1243 3.01303 46.9151 3.67942 45.7061C5.61111 42.1999 7.86705 38.9511 10.6393 36.1495C10.9624 35.8228 11.297 35.5102 11.643 35.2116C13.5919 33.5269 15.8334 32.0607 18.0797 30.7427C23.9154 27.3189 30.204 24.4717 36.4239 21.6715C37.1444 21.347 37.8737 21.0015 38.6117 20.635C38.8732 20.505 39.0708 20.3642 39.2891 20.1463C40.2538 19.1827 41.2164 18.2314 42.177 17.2924C42.2187 17.2517 42.2469 17.2034 42.2616 17.1476C42.3286 16.887 42.4096 16.63 42.5046 16.3766C43.3596 14.1053 44.8452 12.0049 46.4947 10.1593C47.3332 9.22026 48.1212 8.42695 48.8587 7.77934C49.4737 7.23989 50.0859 6.70804 50.6954 6.18378C51.6117 5.39673 52.5486 4.61638 53.5922 4.00095C54.1457 3.67379 54.9904 3.28026 55.5804 3.6034C55.5866 3.60673 55.592 3.61124 55.5963 3.61666C55.6006 3.62208 55.6038 3.62829 55.6056 3.63493C55.6074 3.64156 55.6078 3.64849 55.6068 3.65528C55.6058 3.66207 55.6033 3.6686 55.5997 3.67446L48.5551 15.0526C48.5436 15.0711 48.5362 15.0919 48.5334 15.1136C48.5305 15.1353 48.5323 15.1574 48.5386 15.1786Z" fill="#215FC2" stroke="white" stroke-width="0.7"/>
<path d="M58.2208 55.5588C58.0948 55.9597 57.9647 56.3706 57.8194 56.7702C57.7554 56.9472 57.5854 56.9613 57.4181 56.9981C57.0459 57.0808 56.6886 57.1572 56.3462 57.2274C56.2888 57.2393 56.2291 57.2364 56.1731 57.219C56.1171 57.2016 56.0667 57.1703 56.0268 57.1282C55.7441 56.8292 55.4625 56.5295 55.1821 56.2292C55.0637 56.1025 55.0685 55.9852 55.1222 55.8182C55.2457 55.4361 55.3659 55.0683 55.483 54.7147C55.5007 54.6604 55.5328 54.6116 55.5759 54.5732C55.619 54.5347 55.6717 54.508 55.7287 54.4955C56.1285 54.4079 56.5397 54.3201 56.9624 54.2321C57.0941 54.2048 57.2065 54.2401 57.2997 54.338C57.5925 54.6455 57.8757 54.9474 58.1492 55.2437C58.188 55.2858 58.215 55.337 58.2276 55.3922C58.2401 55.4474 58.2378 55.5048 58.2208 55.5588ZM55.7996 54.7536C55.786 54.7566 55.7735 54.763 55.7632 54.7722C55.7529 54.7814 55.7453 54.793 55.7411 54.8059L55.3625 55.9657C55.3583 55.9787 55.3577 55.9925 55.3607 56.0058C55.3637 56.0191 55.3703 56.0314 55.3797 56.0415L56.2223 56.9412C56.2317 56.9513 56.2436 56.9588 56.2569 56.9631C56.2702 56.9673 56.2843 56.9681 56.298 56.9653L57.5193 56.7038C57.5329 56.7008 57.5454 56.6944 57.5557 56.6853C57.566 56.6761 57.5736 56.6645 57.5778 56.6515L57.9564 55.4917C57.9606 55.4788 57.9612 55.4649 57.9582 55.4516C57.9552 55.4383 57.9486 55.426 57.9392 55.416L57.0966 54.5163C57.0872 54.5063 57.0752 54.4989 57.0619 54.4947C57.0487 54.4906 57.0345 54.49 57.0209 54.4928L55.7996 54.7536Z" stroke="white" stroke-width="0.7"/>
</svg>
