<svg width="74" height="74" viewBox="0 0 74 74" fill="none" xmlns="http://www.w3.org/2000/svg">
<g opacity="0.5">
<path d="M35.6162 59.9251L18.5296 69.9521L1.49478 60.2137L1.47998 35.0463L5.90518 32.4563" stroke="black" stroke-linecap="round" stroke-linejoin="round"/>
<path d="M65.4897 11.1738L69.1157 13.3642L70.8177 14.3558V17.8042" stroke="black" stroke-linecap="round" stroke-linejoin="round"/>
<path d="M31.0283 17.7525L53.7685 4.43994L58.0087 6.90414" stroke="black" stroke-linecap="round" stroke-linejoin="round"/>
<path d="M25.3154 46.2352L33.4998 41.5066" stroke="black" stroke-linecap="round" stroke-linejoin="round"/>
<path d="M18.5298 69.9522V44.8366L70.8182 14.356" stroke="black" stroke-linecap="round" stroke-linejoin="round"/>
<path d="M1.47998 35.0464L18.5296 44.8366" stroke="black" stroke-linecap="round" stroke-linejoin="round"/>
<path d="M21.9482 35.394V38.0654" stroke="black" stroke-linecap="round" stroke-linejoin="round"/>
<path d="M16.0137 38.0654V35.394" stroke="black" stroke-linecap="round" stroke-linejoin="round"/>
<path d="M18.9811 37.4291C20.6199 37.4291 21.9485 36.518 21.9485 35.3941C21.9485 34.2702 20.6199 33.3591 18.9811 33.3591C17.3422 33.3591 16.0137 34.2702 16.0137 35.3941C16.0137 36.518 17.3422 37.4291 18.9811 37.4291Z" stroke="black" stroke-linecap="round" stroke-linejoin="round"/>
<path d="M21.9483 38.0654C21.9483 39.1828 20.6163 40.093 18.9883 40.093C17.3603 40.093 16.0283 39.1828 16.0283 38.0654" stroke="black" stroke-linecap="round" stroke-linejoin="round"/>
<path d="M29.7402 31.0725V33.7365" stroke="black" stroke-linecap="round" stroke-linejoin="round"/>
<path d="M23.8057 33.7365V31.0725" stroke="black" stroke-linecap="round" stroke-linejoin="round"/>
<path d="M26.7731 33.1076C28.4119 33.1076 29.7405 32.1965 29.7405 31.0726C29.7405 29.9487 28.4119 29.0376 26.7731 29.0376C25.1342 29.0376 23.8057 29.9487 23.8057 31.0726C23.8057 32.1965 25.1342 33.1076 26.7731 33.1076Z" stroke="black" stroke-linecap="round" stroke-linejoin="round"/>
<path d="M29.7403 33.7366C29.7403 34.8614 28.4083 35.7716 26.7803 35.7716C25.1523 35.7716 23.8203 34.8614 23.8203 33.7366" stroke="black" stroke-linecap="round" stroke-linejoin="round"/>
<path d="M37.5327 26.7434V29.4148" stroke="black" stroke-linecap="round" stroke-linejoin="round"/>
<path d="M31.5981 29.4148V26.7434" stroke="black" stroke-linecap="round" stroke-linejoin="round"/>
<path d="M34.5655 28.7785C36.2044 28.7785 37.5329 27.8674 37.5329 26.7435C37.5329 25.6196 36.2044 24.7085 34.5655 24.7085C32.9267 24.7085 31.5981 25.6196 31.5981 26.7435C31.5981 27.8674 32.9267 28.7785 34.5655 28.7785Z" stroke="black" stroke-linecap="round" stroke-linejoin="round"/>
<path d="M37.5328 29.4148C37.5328 30.5322 36.2082 31.4424 34.5728 31.4424C32.9374 31.4424 31.6128 30.5322 31.6128 29.4148" stroke="black" stroke-linecap="round" stroke-linejoin="round"/>
<path d="M14.5332 29.9919V32.6559" stroke="black" stroke-linecap="round" stroke-linejoin="round"/>
<path d="M8.59863 32.6559V29.9919" stroke="black" stroke-linecap="round" stroke-linejoin="round"/>
<path d="M11.566 32.027C13.2049 32.027 14.5334 31.1159 14.5334 29.992C14.5334 28.8681 13.2049 27.957 11.566 27.957C9.92718 27.957 8.59863 28.8681 8.59863 29.992C8.59863 31.1159 9.92718 32.027 11.566 32.027Z" stroke="black" stroke-linecap="round" stroke-linejoin="round"/>
<path d="M14.5333 32.656C14.5333 33.7808 13.2013 34.691 11.5733 34.691C9.94528 34.691 8.61328 33.7808 8.61328 32.656" stroke="black" stroke-linecap="round" stroke-linejoin="round"/>
<path d="M22.3257 25.6631V28.3345" stroke="black" stroke-linecap="round" stroke-linejoin="round"/>
<path d="M16.3911 28.3345V25.6631" stroke="black" stroke-linecap="round" stroke-linejoin="round"/>
<path d="M19.3585 27.6982C20.9974 27.6982 22.3259 26.7871 22.3259 25.6632C22.3259 24.5393 20.9974 23.6282 19.3585 23.6282C17.7197 23.6282 16.3911 24.5393 16.3911 25.6632C16.3911 26.7871 17.7197 27.6982 19.3585 27.6982Z" stroke="black" stroke-linecap="round" stroke-linejoin="round"/>
<path d="M22.3258 28.3345C22.3258 29.4519 20.9938 30.3621 19.3658 30.3621C17.7378 30.3621 16.4058 29.4519 16.4058 28.3345" stroke="black" stroke-linecap="round" stroke-linejoin="round"/>
<path d="M30.1177 21.3416V24.0056" stroke="black" stroke-linecap="round" stroke-linejoin="round"/>
<path d="M24.1831 24.0056V21.3416" stroke="black" stroke-linecap="round" stroke-linejoin="round"/>
<path d="M27.1505 23.3766C28.7894 23.3766 30.1179 22.4655 30.1179 21.3416C30.1179 20.2177 28.7894 19.3066 27.1505 19.3066C25.5117 19.3066 24.1831 20.2177 24.1831 21.3416C24.1831 22.4655 25.5117 23.3766 27.1505 23.3766Z" stroke="black" stroke-linecap="round" stroke-linejoin="round"/>
<path d="M30.1178 24.0056C30.1178 25.1304 28.7932 26.0406 27.1578 26.0406C25.5224 26.0406 24.1978 25.1304 24.1978 24.0056" stroke="black" stroke-linecap="round" stroke-linejoin="round"/>
<path d="M25.1748 41.1292V65.9191" stroke="black" stroke-linecap="round" stroke-linejoin="round"/>
<path d="M11.788 55.9735L7.83643 53.6795V48.4033L11.788 50.6973V55.9735Z" stroke="black" stroke-linecap="round" stroke-linejoin="round"/>
<path d="M12.6053 60.1642C12.9521 59.964 12.9517 59.3139 12.6043 58.7122C12.2569 58.1105 11.6941 57.785 11.3473 57.9853C11.0004 58.1856 11.0009 58.8357 11.3482 59.4374C11.6956 60.0391 12.2584 60.3645 12.6053 60.1642Z" fill="black"/>
<path d="M14.3928 66.8294L14.4002 49.1804L5.26855 43.9338L5.29076 61.8788" stroke="black" stroke-linecap="round" stroke-linejoin="round"/>
<path d="M50.3123 19.2402C50.5695 19.3917 50.8603 19.4771 51.1586 19.4888C51.4569 19.5004 51.7535 19.4378 52.0217 19.3068L53.1095 18.6778C53.3946 18.477 53.621 18.2039 53.7654 17.8865C53.9097 17.5691 53.9669 17.219 53.9309 16.8722C53.8776 15.9064 53.5971 14.9668 53.1124 14.1297C52.6276 13.2926 51.9522 12.5817 51.1411 12.0548C50.8626 11.854 50.5363 11.7299 50.1947 11.6948C49.8532 11.6598 49.5084 11.715 49.1949 11.855L48.1071 12.484C47.851 12.6595 47.643 12.8964 47.5021 13.173C47.3612 13.4497 47.2919 13.7572 47.3005 14.0676" stroke="black" stroke-linecap="round" stroke-linejoin="round"/>
<path d="M44.9475 21.1049V16.4503C44.9232 16.1935 44.9664 15.9348 45.0728 15.6999C45.1792 15.465 45.3452 15.2619 45.5543 15.1109L48.3367 13.5051C48.5745 13.3969 48.8367 13.3537 49.0967 13.3797C49.3566 13.4057 49.605 13.5 49.8167 13.6531C50.4195 14.0468 50.9211 14.5768 51.281 15.2003C51.641 15.8238 51.8492 16.5232 51.8887 17.2421C51.9131 17.4989 51.8699 17.7575 51.7634 17.9925C51.657 18.2274 51.491 18.4305 51.2819 18.5815L49.5503 19.7137V20.9421C49.5503 21.8005 48.5365 22.4961 47.2785 22.4961C46.0205 22.4961 45.0067 21.8005 45.0067 20.9421" stroke="black" stroke-linecap="round" stroke-linejoin="round"/>
<path d="M61.7753 12.3728C62.0345 12.5232 62.3268 12.6073 62.6263 12.6176C62.9258 12.6279 63.2232 12.5642 63.4921 12.432L64.5799 11.803C64.8636 11.603 65.0886 11.3309 65.2318 11.0147C65.3749 10.6985 65.4309 10.3498 65.3939 10.0048C65.3407 9.03873 65.0612 8.09874 64.5779 7.26063C64.0946 6.42253 63.421 5.70979 62.6115 5.17995C62.3309 4.97418 62 4.84774 61.6537 4.81388C61.3073 4.78003 60.9583 4.84002 60.6431 4.98755L59.5553 5.60915C59.2977 5.78547 59.0884 6.02339 58.9462 6.30126C58.804 6.57912 58.7336 6.88812 58.7413 7.20015" stroke="black" stroke-linecap="round" stroke-linejoin="round"/>
<path d="M50.8306 11.8474L59.829 6.66739C60.0661 6.55819 60.328 6.51368 60.5879 6.53837C60.8478 6.56307 61.0966 6.65608 61.309 6.80799C61.9117 7.2017 62.4133 7.73173 62.7733 8.35521C63.1332 8.9787 63.3414 9.67814 63.381 10.397C63.4066 10.655 63.3641 10.9151 63.2576 11.1515C63.1511 11.3879 62.9844 11.5921 62.7742 11.7438L53.946 16.9238" stroke="black" stroke-linecap="round" stroke-linejoin="round"/>
<path d="M62.6411 5.18005C62.6411 5.18005 63.2331 4.90625 63.6845 4.63985C63.9223 4.53171 64.1845 4.48843 64.4445 4.51443C64.7044 4.54042 64.9528 4.63476 65.1645 4.78785C65.7685 5.18025 66.2711 5.70997 66.6312 6.33373C66.9913 6.95749 67.1987 7.6576 67.2365 8.37685V12.1509" stroke="black" stroke-linecap="round" stroke-linejoin="round"/>
<path d="M72.3204 22.2517L66.4893 25.6113V54.3011L72.3204 50.9415V22.2517Z" stroke="black" stroke-linecap="round" stroke-linejoin="round"/>
<path d="M66.4893 31.3538L72.3204 27.9868" stroke="black" stroke-linecap="round" stroke-linejoin="round"/>
<path d="M66.4893 37.0886L72.3204 33.729" stroke="black" stroke-linecap="round" stroke-linejoin="round"/>
<path d="M66.4893 42.8311L72.3204 39.4641" stroke="black" stroke-linecap="round" stroke-linejoin="round"/>
<path d="M66.4893 48.5661L72.3204 45.2065" stroke="black" stroke-linecap="round" stroke-linejoin="round"/>
<path d="M61.7457 25.5818L55.9146 28.9414V57.6312L61.7457 54.2716V25.5818Z" stroke="black" stroke-linecap="round" stroke-linejoin="round"/>
<path d="M55.9146 34.6839L61.7457 31.3169" stroke="black" stroke-linecap="round" stroke-linejoin="round"/>
<path d="M55.9146 40.4187L61.7457 37.0591" stroke="black" stroke-linecap="round" stroke-linejoin="round"/>
<path d="M55.9146 46.1612L61.7457 42.7942" stroke="black" stroke-linecap="round" stroke-linejoin="round"/>
<path d="M55.9146 51.8963L61.7457 48.5293" stroke="black" stroke-linecap="round" stroke-linejoin="round"/>
<path d="M51.0377 29.0894L45.2065 32.449V61.1388L51.0377 57.7792V29.0894Z" stroke="black" stroke-linecap="round" stroke-linejoin="round"/>
<path d="M45.2139 38.1915L51.0377 34.8245" stroke="black" stroke-linecap="round" stroke-linejoin="round"/>
<path d="M45.2139 43.9263L51.0377 40.5593" stroke="black" stroke-linecap="round" stroke-linejoin="round"/>
<path d="M45.2139 49.6614L51.0377 46.3018" stroke="black" stroke-linecap="round" stroke-linejoin="round"/>
<path d="M45.2139 55.4039L51.0377 52.0369" stroke="black" stroke-linecap="round" stroke-linejoin="round"/>
<path d="M65.1646 18.093L72.1649 22.1926" stroke="black" stroke-linecap="round" stroke-linejoin="round"/>
<path d="M59.3848 21.4006L66.3038 25.3522" stroke="black" stroke-linecap="round" stroke-linejoin="round"/>
<path d="M55.9145 57.6311L51.2451 54.7673" stroke="black" stroke-linecap="round" stroke-linejoin="round"/>
<path d="M66.4888 54.3011L62.0562 51.6445" stroke="black" stroke-linecap="round" stroke-linejoin="round"/>
<path d="M61.7456 25.5819L56.647 22.5923" stroke="black" stroke-linecap="round" stroke-linejoin="round"/>
<path d="M55.9143 28.9414L50.9341 26.011" stroke="black" stroke-linecap="round" stroke-linejoin="round"/>
<path d="M51.0375 29.0894L48.7065 27.6833" stroke="black" stroke-linecap="round" stroke-linejoin="round"/>
<path d="M45.2143 32.449L42.4541 30.9468" stroke="black" stroke-linecap="round" stroke-linejoin="round"/>
<path d="M45.2065 61.1388L36.9629 56.129V34.2842" stroke="black" stroke-linecap="round" stroke-linejoin="round"/>
</g>
</svg>
