<svg width="74" height="74" viewBox="0 0 74 74" fill="none" xmlns="http://www.w3.org/2000/svg">
<g opacity="0.5">
<path d="M33.833 11.0271L47.2936 3.16089L51.4006 5.61029" stroke="black" stroke-linecap="round" stroke-linejoin="round"/>
<path d="M63.2258 12.374L68.4206 15.445V46.303L26.3072 71.0116L5.20237 58.9422L5.18018 27.766L13.261 23.0522" stroke="black" stroke-linecap="round" stroke-linejoin="round"/>
<path d="M68.4205 15.4451L26.3071 39.8947V71.0117" stroke="black" stroke-linecap="round" stroke-linejoin="round"/>
<path d="M49.4693 38.8438L49.4102 44.7045" stroke="black" stroke-linecap="round" stroke-linejoin="round"/>
<path d="M8.01416 29.2756L26.307 39.8946" stroke="black" stroke-linecap="round" stroke-linejoin="round"/>
<path d="M36.7706 57.6325C36.7706 57.6325 30.6138 59.6749 33.67 50.3657C33.67 50.3657 36.63 43.5059 37.37 39.6875C37.37 39.6875 43.8376 39.8651 44.1558 46.5029C44.372 48.2401 44.122 50.0036 43.4315 51.6122C42.7409 53.2209 41.6347 54.6168 40.2264 55.6567C40.2264 55.6567 45.2436 47.5833 39.1312 44.6751C39.4403 47.029 39.0518 49.4219 38.0138 51.5571C38.0138 51.5571 38.0656 50.0253 36.9112 49.6035C36.9112 49.6035 36.1712 51.9345 35.8012 53.1111C35.7864 53.1111 34.5728 56.5817 36.7706 57.6325Z" stroke="black" stroke-linecap="round" stroke-linejoin="round"/>
<path fill-rule="evenodd" clip-rule="evenodd" d="M62.5967 26.6189L57.4833 29.5715L54.5825 39.6947L58.0383 37.7041L55.1301 47.9901L64.2543 30.6075L59.9697 33.0791L62.5967 26.6189Z" stroke="black" stroke-linecap="round" stroke-linejoin="round"/>
<path d="M31.7388 8.86646V20.7731" stroke="black" stroke-linecap="round" stroke-linejoin="round"/>
<path d="M25.0122 20.7731V8.86646" stroke="black" stroke-linecap="round" stroke-linejoin="round"/>
<path d="M28.3792 11.1677C30.2387 11.1677 31.7462 10.1374 31.7462 8.86634C31.7462 7.59531 30.2387 6.56494 28.3792 6.56494C26.5197 6.56494 25.0122 7.59531 25.0122 8.86634C25.0122 10.1374 26.5197 11.1677 28.3792 11.1677Z" stroke="black" stroke-linecap="round" stroke-linejoin="round"/>
<path d="M31.7388 20.7803C31.7388 22.0531 30.2588 23.0817 28.3792 23.0817C26.4996 23.0817 25.0122 22.0531 25.0122 20.7803" stroke="black" stroke-linecap="round" stroke-linejoin="round"/>
<path d="M22.3481 13.7429V25.6421" stroke="black" stroke-linecap="round" stroke-linejoin="round"/>
<path d="M15.6216 25.6421V13.7429" stroke="black" stroke-linecap="round" stroke-linejoin="round"/>
<path d="M18.9886 16.0445C20.8481 16.0445 22.3556 15.0141 22.3556 13.7431C22.3556 12.472 20.8481 11.4417 18.9886 11.4417C17.129 11.4417 15.6216 12.472 15.6216 13.7431C15.6216 15.0141 17.129 16.0445 18.9886 16.0445Z" stroke="black" stroke-linecap="round" stroke-linejoin="round"/>
<path d="M22.3482 25.6421C22.3482 26.9149 20.8682 27.9509 18.9886 27.9509C17.109 27.9509 15.6216 26.9149 15.6216 25.6421" stroke="black" stroke-linecap="round" stroke-linejoin="round"/>
<path d="M21.1864 68.0961V54.8279L9.70898 48.1235V61.4435" stroke="black" stroke-linecap="round" stroke-linejoin="round"/>
<path d="M21.1864 58.158L9.70898 51.4536" stroke="black" stroke-linecap="round" stroke-linejoin="round"/>
<path d="M21.1864 61.4878L9.70898 54.7834" stroke="black" stroke-linecap="round" stroke-linejoin="round"/>
<path d="M21.1864 64.8179L9.70898 58.1135" stroke="black" stroke-linecap="round" stroke-linejoin="round"/>
<path d="M42.0325 23.6294C42.3965 23.8408 42.8069 23.9595 43.2276 23.975C43.6483 23.9905 44.0663 23.9023 44.4449 23.7182L45.9693 22.8376C46.3683 22.556 46.685 22.1729 46.8866 21.728C47.0882 21.2832 47.1675 20.7926 47.1163 20.3068C47.0403 18.9476 46.6449 17.6255 45.9622 16.4477C45.2795 15.27 44.3286 14.2698 43.1869 13.5284C42.7925 13.2418 42.329 13.0654 41.8439 13.0173C41.3588 12.9692 40.8696 13.0511 40.4267 13.2546L38.8949 14.1426C38.5357 14.3886 38.2438 14.7206 38.0461 15.1084C37.8483 15.4963 37.7509 15.9275 37.7627 16.3626" stroke="black" stroke-linecap="round" stroke-linejoin="round"/>
<path d="M34.5065 26.2341V19.7147C34.4682 19.353 34.5268 18.9875 34.6763 18.6559C34.8259 18.3243 35.061 18.0385 35.3576 17.8277L39.2574 15.6077C39.5874 15.4566 39.9515 15.3954 40.3129 15.4305C40.6742 15.4656 41.0198 15.5957 41.3146 15.8075C42.1605 16.3607 42.8645 17.105 43.3697 17.9804C43.8748 18.8558 44.1671 19.8378 44.2227 20.8469C44.2611 21.2087 44.2025 21.5741 44.0529 21.9058C43.9034 22.2374 43.6683 22.5232 43.3718 22.7339L40.9668 24.288L40.9298 26.0122C40.9298 27.2258 39.5016 28.2322 37.7404 28.2322C35.9792 28.2322 34.5436 27.2554 34.5436 26.0122" stroke="black" stroke-linecap="round" stroke-linejoin="round"/>
<path d="M58.1792 13.9873C58.5431 14.1956 58.9524 14.312 59.3716 14.3262C59.7907 14.3403 60.207 14.2519 60.5842 14.0687L62.1086 13.1881C62.5076 12.9064 62.8242 12.5234 63.0259 12.0785C63.2275 11.6336 63.3068 11.143 63.2556 10.6573C63.1833 9.30076 62.7917 7.98048 62.1128 6.80389C61.4338 5.6273 60.4867 4.62764 59.3484 3.88627C58.9542 3.59615 58.4892 3.41761 58.0021 3.36943C57.5151 3.32125 57.0241 3.4052 56.5808 3.61247L55.0268 4.50047C54.6657 4.74508 54.3721 5.07667 54.1729 5.46465C53.9737 5.85263 53.8755 6.28451 53.8872 6.72047" stroke="black" stroke-linecap="round" stroke-linejoin="round"/>
<path d="M42.7573 13.2473L55.4039 5.92866C55.7342 5.77702 56.099 5.71629 56.4607 5.75271C56.8223 5.78914 57.1677 5.92141 57.4611 6.13587C58.3073 6.68697 59.0116 7.42982 59.5169 8.30412C60.0222 9.17842 60.3142 10.1595 60.3693 11.1679C60.4077 11.5296 60.3491 11.8951 60.1995 12.2267C60.05 12.5583 59.8149 12.8441 59.5183 13.0549L47.1159 20.3069" stroke="black" stroke-linecap="round" stroke-linejoin="round"/>
<path d="M59.3481 3.8862C59.3481 3.8862 60.1843 3.494 60.8281 3.1462C61.1585 2.99456 61.5233 2.93382 61.8849 2.97024C62.2465 3.00667 62.5919 3.13894 62.8853 3.3534C63.7325 3.90523 64.4374 4.64925 64.9428 5.52492C65.4481 6.4006 65.7396 7.3832 65.7935 8.3928V13.6912" stroke="black" stroke-linecap="round" stroke-linejoin="round"/>
</g>
</svg>
