<svg width="424" height="424" viewBox="0 0 424 424" fill="none" xmlns="http://www.w3.org/2000/svg">
<path d="M193.852 63.1835L270.977 18.1123L294.509 32.1467" stroke="white" stroke-linecap="round" stroke-linejoin="round"/>
<path d="M362.265 70.8994L392.03 88.4954V265.303L150.732 406.877L29.8069 337.723L29.6797 159.091L75.9804 132.083" stroke="white" stroke-linecap="round" stroke-linejoin="round"/>
<path d="M392.033 88.4961L150.734 228.586V406.878" stroke="white" stroke-linecap="round" stroke-linejoin="round"/>
<path d="M283.441 222.564L283.102 256.145" stroke="white" stroke-linecap="round" stroke-linejoin="round"/>
<path d="M45.9219 167.741L150.735 228.585" stroke="white" stroke-linecap="round" stroke-linejoin="round"/>
<path d="M210.681 330.218C210.681 330.218 175.405 341.921 192.916 288.582C192.916 288.582 209.876 249.277 214.116 227.398C214.116 227.398 251.173 228.416 252.997 266.449C254.236 276.403 252.803 286.507 248.847 295.724C244.89 304.941 238.552 312.94 230.482 318.898C230.482 318.898 259.229 272.639 224.207 255.976C225.978 269.463 223.752 283.174 217.805 295.408C217.805 295.408 218.101 286.631 211.487 284.214C211.487 284.214 207.247 297.57 205.127 304.312C205.042 304.312 198.089 324.198 210.681 330.218Z" stroke="white" stroke-linecap="round" stroke-linejoin="round"/>
<path fill-rule="evenodd" clip-rule="evenodd" d="M358.661 152.52L329.363 169.437L312.742 227.44L332.543 216.035L315.88 274.971L368.159 175.373L343.609 189.535L358.661 152.52Z" stroke="white" stroke-linecap="round" stroke-linejoin="round"/>
<path d="M181.852 50.8027V119.024" stroke="white" stroke-linecap="round" stroke-linejoin="round"/>
<path d="M143.312 119.024V50.8027" stroke="white" stroke-linecap="round" stroke-linejoin="round"/>
<path d="M162.604 63.989C173.259 63.989 181.897 58.0853 181.897 50.8026C181.897 43.52 173.259 37.6162 162.604 37.6162C151.95 37.6162 143.312 43.52 143.312 50.8026C143.312 58.0853 151.95 63.989 162.604 63.989Z" stroke="white" stroke-linecap="round" stroke-linejoin="round"/>
<path d="M181.854 119.066C181.854 126.359 173.374 132.253 162.604 132.253C151.835 132.253 143.312 126.359 143.312 119.066" stroke="white" stroke-linecap="round" stroke-linejoin="round"/>
<path d="M128.047 78.7441V146.923" stroke="white" stroke-linecap="round" stroke-linejoin="round"/>
<path d="M89.5078 146.923V78.7441" stroke="white" stroke-linecap="round" stroke-linejoin="round"/>
<path d="M108.8 91.9304C119.454 91.9304 128.092 86.0267 128.092 78.744C128.092 71.4614 119.454 65.5576 108.8 65.5576C98.1451 65.5576 89.5078 71.4614 89.5078 78.744C89.5078 86.0267 98.1451 91.9304 108.8 91.9304Z" stroke="white" stroke-linecap="round" stroke-linejoin="round"/>
<path d="M128.049 146.924C128.049 154.217 119.569 160.153 108.8 160.153C98.0302 160.153 89.5078 154.217 89.5078 146.924" stroke="white" stroke-linecap="round" stroke-linejoin="round"/>
<path d="M121.387 390.172V314.149L55.625 275.734V352.054" stroke="white" stroke-linecap="round" stroke-linejoin="round"/>
<path d="M121.387 333.229L55.625 294.814" stroke="white" stroke-linecap="round" stroke-linejoin="round"/>
<path d="M121.387 352.309L55.625 313.895" stroke="white" stroke-linecap="round" stroke-linejoin="round"/>
<path d="M121.387 371.389L55.625 332.975" stroke="white" stroke-linecap="round" stroke-linejoin="round"/>
<path d="M240.837 135.39C242.923 136.602 245.275 137.281 247.685 137.37C250.095 137.459 252.491 136.954 254.66 135.899L263.394 130.853C265.681 129.239 267.495 127.045 268.65 124.496C269.805 121.947 270.26 119.136 269.966 116.353C269.531 108.565 267.266 100.989 263.354 94.2409C259.442 87.4927 253.994 81.762 247.452 77.5141C245.192 75.8721 242.536 74.8613 239.757 74.5856C236.977 74.3099 234.175 74.7792 231.637 75.9454L222.86 81.0334C220.802 82.4426 219.13 84.3452 217.996 86.5672C216.863 88.7893 216.305 91.2599 216.373 93.7534" stroke="white" stroke-linecap="round" stroke-linejoin="round"/>
<path d="M197.714 150.315V112.961C197.494 110.888 197.83 108.794 198.687 106.894C199.544 104.994 200.891 103.356 202.59 102.149L224.935 89.429C226.826 88.5628 228.912 88.2125 230.983 88.4136C233.053 88.6147 235.033 89.36 236.722 90.5738C241.569 93.7431 245.603 98.0079 248.497 103.024C251.392 108.04 253.066 113.666 253.385 119.448C253.605 121.521 253.269 123.615 252.412 125.515C251.555 127.415 250.208 129.053 248.509 130.26L234.729 139.164L234.517 149.043C234.517 155.997 226.334 161.763 216.243 161.763C206.152 161.763 197.926 156.167 197.926 149.043" stroke="white" stroke-linecap="round" stroke-linejoin="round"/>
<path d="M333.355 80.1427C335.441 81.3366 337.786 82.0031 340.187 82.0844C342.589 82.1656 344.974 81.6592 347.135 80.609L355.87 75.5635C358.156 73.9495 359.97 71.7549 361.125 69.2058C362.281 66.6568 362.735 63.8458 362.442 61.0627C362.027 53.2902 359.784 45.7254 355.894 38.9838C352.003 32.2423 346.576 26.5145 340.054 22.2666C337.796 20.6043 335.131 19.5814 332.341 19.3053C329.55 19.0292 326.737 19.5103 324.197 20.6978L315.293 25.7858C313.224 27.1874 311.542 29.0873 310.4 31.3103C309.259 33.5334 308.696 36.0079 308.763 38.5058" stroke="white" stroke-linecap="round" stroke-linejoin="round"/>
<path d="M244.992 75.903L317.454 33.9694C319.346 33.1005 321.437 32.7526 323.509 32.9613C325.581 33.17 327.56 33.9278 329.241 35.1566C334.089 38.3143 338.125 42.5706 341.02 47.5801C343.915 52.5897 345.589 58.2112 345.904 63.9886C346.124 66.0613 345.788 68.1552 344.931 70.0553C344.074 71.9554 342.727 73.5932 341.028 74.8006L269.966 116.353" stroke="white" stroke-linecap="round" stroke-linejoin="round"/>
<path d="M340.047 22.2671C340.047 22.2671 344.838 20.0199 348.527 18.0271C350.42 17.1582 352.51 16.8102 354.582 17.0189C356.654 17.2276 358.633 17.9854 360.314 19.2142C365.168 22.3761 369.207 26.6391 372.103 31.6565C374.998 36.6739 376.668 42.3039 376.977 48.0886V78.4471" stroke="white" stroke-linecap="round" stroke-linejoin="round"/>
</svg>
