<svg width="108" height="34" viewBox="0 0 108 34" fill="none" xmlns="http://www.w3.org/2000/svg">
<path d="M0.801677 34V0.864001H9.57559L11.4016 16.3631L13.3168 0.864001H21.6008V34H15.2764V15.9177L12.4705 34H9.84282L7.03695 15.9177V34H0.801677ZM35.3587 34L34.8243 29.1454H31.4394L30.9495 34H24.5806L28.8117 0.864001H37.8528L42.4847 34H35.3587ZM33.1318 12.5329L32.1075 22.5984H34.1562L33.1318 12.5329ZM42.7377 0.864001H58.3259V7.7228H54.1839V34H46.8797V7.7228H42.7377V0.864001ZM69.5622 34L69.0278 29.1454H65.6429L65.153 34H58.7841L63.0152 0.864001H72.0563L76.6882 34H69.5622ZM67.3353 12.5329L66.311 22.5984H68.3597L67.3353 12.5329ZM86.9524 6.56482V14.1808H87.8877C88.3628 14.1808 88.7042 14.062 88.9121 13.8245C89.1199 13.5869 89.2238 13.1712 89.2238 12.5774V8.12363C89.2238 7.50011 89.1496 7.08442 89.0012 6.87658C88.8527 6.66874 88.5261 6.56482 88.0213 6.56482H86.9524ZM86.9524 20.416V34H79.6037V0.864001H91.139C92.8314 0.864001 94.1675 1.36876 95.1473 2.37828C96.1272 3.35811 96.6171 4.79816 96.6171 6.69843V11.0631C96.6171 13.5572 95.6521 15.2348 93.7221 16.0959C94.4644 16.3928 95.1325 16.9124 95.7263 17.6547C96.3202 18.397 96.6171 19.3174 96.6171 20.416V31.3723C96.6171 32.3224 96.7655 33.1241 97.0625 33.7773V34H89.8028C89.4168 33.4952 89.2238 32.7084 89.2238 31.6395V22.0194C89.2238 21.4255 89.1348 21.0099 88.9566 20.7723C88.8082 20.5348 88.4815 20.416 87.9768 20.416H86.9524ZM107.751 0.864001V34H100.402V0.864001H107.751Z" fill="black"/>
</svg>
